<?xml version="1.0" encoding="utf-8" ?>
<svg xmlns="http://www.w3.org/2000/svg" width="1000" height="1000" viewbox ="0 -1000 1000 1000">
	<defs>
		<marker id="arrow" markerWidth="5" markerHeight="5" refX="0" refY="3" orient="auto" markerUnits="strokeWidth" >
			<path d="M0,0 L0,6 L9,3 z" fill="#000" />
		</marker>
	</defs>

	<line x1="0" y1="0" x2="1000" y2="0" style="fill:none;stroke:black;stroke-width:3" marker-end="url(#arrow)" />
	<line x1="0" y1="0" x2="0" y2="1000" style="fill:none;stroke:black;stroke-width:3" marker-end="url(#arrow)" />
	<circle cx="178" cy="150" r="5px" />
	<line x1="178" y1="150" x2="315" y2="166" style="fill:none;stroke:black;stroke-width:1" />
	<circle cx="315" cy="166" r="5px" />
	<line x1="315" y1="166" x2="354" y2="70" style="fill:none;stroke:black;stroke-width:1" />
	<circle cx="354" cy="70" r="5px" />
	<line x1="354" y1="70" x2="378" y2="145" style="fill:none;stroke:black;stroke-width:1" />
	<circle cx="378" cy="145" r="5px" />
	<line x1="378" y1="145" x2="322" y2="277" style="fill:none;stroke:black;stroke-width:1" />
	<circle cx="322" cy="277" r="5px" />
	<line x1="322" y1="277" x2="242" y2="459" style="fill:none;stroke:black;stroke-width:1" />
	<circle cx="242" cy="459" r="5px" />
	<line x1="242" y1="459" x2="303" y2="534" style="fill:none;stroke:black;stroke-width:1" />
	<circle cx="303" cy="534" r="5px" />
	<line x1="303" y1="534" x2="469" y2="431" style="fill:none;stroke:black;stroke-width:1" />
	<circle cx="469" cy="431" r="5px" />
	<line x1="469" y1="431" x2="678" y2="122" style="fill:none;stroke:black;stroke-width:1" />
	<circle cx="678" cy="122" r="5px" />
	<line x1="678" y1="122" x2="446" y2="570" style="fill:none;stroke:black;stroke-width:1" />
	<circle cx="446" cy="570" r="5px" />
	<line x1="446" y1="570" x2="276" y2="692" style="fill:none;stroke:black;stroke-width:1" />
	<circle cx="276" cy="692" r="5px" />
	<line x1="276" y1="692" x2="542" y2="631" style="fill:none;stroke:black;stroke-width:1" />
	<circle cx="542" cy="631" r="5px" />
	<line x1="542" y1="631" x2="152" y2="826" style="fill:none;stroke:black;stroke-width:1" />
	<circle cx="152" cy="826" r="5px" />
	<line x1="152" y1="826" x2="899" y2="68" style="fill:none;stroke:black;stroke-width:1" />
	<circle cx="899" cy="68" r="5px" />
	<line x1="899" y1="68" x2="861" y2="314" style="fill:none;stroke:black;stroke-width:1" />
	<circle cx="861" cy="314" r="5px" />
	<line x1="861" y1="314" x2="247" y2="895" style="fill:none;stroke:black;stroke-width:1" />
	<circle cx="247" cy="895" r="5px" />
	<line x1="247" y1="895" x2="258" y2="894" style="fill:none;stroke:black;stroke-width:1" />
	<circle cx="258" cy="894" r="5px" />
	<line x1="258" y1="894" x2="789" y2="596" style="fill:none;stroke:black;stroke-width:1" />
	<circle cx="789" cy="596" r="5px" />
	<line x1="789" y1="596" x2="136" y2="981" style="fill:none;stroke:black;stroke-width:1" />
	<circle cx="136" cy="981" r="5px" />
	<line x1="136" y1="981" x2="108" y2="994" style="fill:none;stroke:black;stroke-width:1" />
	<circle cx="108" cy="994" r="5px" />
	<line x1="108" y1="994" x2="570" y2="850" style="fill:none;stroke:black;stroke-width:1" />
	<circle cx="570" cy="850" r="5px" />
	<line x1="570" y1="850" x2="640" y2="823" style="fill:none;stroke:black;stroke-width:1" />
	<circle cx="640" cy="823" r="5px" />
	<line x1="640" y1="823" x2="879" y2="695" style="fill:none;stroke:black;stroke-width:1" />
	<circle cx="879" cy="695" r="5px" />
	<line x1="879" y1="695" x2="612" y2="956" style="fill:none;stroke:black;stroke-width:1" />
	<circle cx="612" cy="956" r="5px" />
	<line x1="612" y1="956" x2="622" y2="978" style="fill:none;stroke:black;stroke-width:1" />
	<circle cx="622" cy="978" r="5px" />
</svg>
