<?xml version="1.0" encoding="utf-8" ?>
<svg xmlns="http://www.w3.org/2000/svg" width="1000" height="1000">
	<defs>
		<marker id="arrow" markerWidth="5" markerHeight="5" refX="0" refY="3" orient="auto" markerUnits="strokeWidth" >
			<path d="M0,0 L0,6 L9,3 z" fill="#000" />
		</marker>
	</defs>

	<line x1="0" y1="0" x2="1000" y2="0" style="fill:none;stroke:black;stroke-width:3" marker-end="url(#arrow)" />
	<line x1="0" y1="0" x2="0" y2="1000" style="fill:none;stroke:black;stroke-width:3" marker-end="url(#arrow)" />
<circle cx="1" cy="1" r="1px" fill="black" />
<circle cx="65" cy="1" r="1px" fill="black" />
<circle cx="65" cy="65" r="1px" fill="black" />
<circle cx="1" cy="65" r="1px" fill="black" />
<circle cx="1" cy="129" r="1px" fill="black" />
<circle cx="1" cy="193" r="1px" fill="black" />
<circle cx="65" cy="193" r="1px" fill="black" />
<circle cx="65" cy="129" r="1px" fill="black" />
<circle cx="129" cy="129" r="1px" fill="black" />
<circle cx="129" cy="193" r="1px" fill="black" />
<circle cx="193" cy="193" r="1px" fill="black" />
<circle cx="193" cy="129" r="1px" fill="black" />
<circle cx="193" cy="65" r="1px" fill="black" />
<circle cx="129" cy="65" r="1px" fill="black" />
<circle cx="129" cy="1" r="1px" fill="black" />
<circle cx="193" cy="1" r="1px" fill="black" />
<circle cx="257" cy="1" r="1px" fill="black" />
<circle cx="257" cy="65" r="1px" fill="black" />
<circle cx="321" cy="65" r="1px" fill="black" />
<circle cx="321" cy="1" r="1px" fill="black" />
<circle cx="385" cy="1" r="1px" fill="black" />
<circle cx="449" cy="1" r="1px" fill="black" />
<circle cx="449" cy="65" r="1px" fill="black" />
<circle cx="385" cy="65" r="1px" fill="black" />
<circle cx="385" cy="129" r="1px" fill="black" />
<circle cx="449" cy="129" r="1px" fill="black" />
<circle cx="449" cy="193" r="1px" fill="black" />
<circle cx="385" cy="193" r="1px" fill="black" />
<circle cx="321" cy="193" r="1px" fill="black" />
<circle cx="321" cy="129" r="1px" fill="black" />
<circle cx="257" cy="129" r="1px" fill="black" />
<circle cx="257" cy="193" r="1px" fill="black" />
<circle cx="257" cy="257" r="1px" fill="black" />
<circle cx="257" cy="321" r="1px" fill="black" />
<circle cx="321" cy="321" r="1px" fill="black" />
<circle cx="321" cy="257" r="1px" fill="black" />
<circle cx="385" cy="257" r="1px" fill="black" />
<circle cx="449" cy="257" r="1px" fill="black" />
<circle cx="449" cy="321" r="1px" fill="black" />
<circle cx="385" cy="321" r="1px" fill="black" />
<circle cx="385" cy="385" r="1px" fill="black" />
<circle cx="449" cy="385" r="1px" fill="black" />
<circle cx="449" cy="449" r="1px" fill="black" />
<circle cx="385" cy="449" r="1px" fill="black" />
<circle cx="321" cy="449" r="1px" fill="black" />
<circle cx="321" cy="385" r="1px" fill="black" />
<circle cx="257" cy="385" r="1px" fill="black" />
<circle cx="257" cy="449" r="1px" fill="black" />
<circle cx="193" cy="449" r="1px" fill="black" />
<circle cx="129" cy="449" r="1px" fill="black" />
<circle cx="129" cy="385" r="1px" fill="black" />
<circle cx="193" cy="385" r="1px" fill="black" />
<circle cx="193" cy="321" r="1px" fill="black" />
<circle cx="193" cy="257" r="1px" fill="black" />
<circle cx="129" cy="257" r="1px" fill="black" />
<circle cx="129" cy="321" r="1px" fill="black" />
<circle cx="65" cy="321" r="1px" fill="black" />
<circle cx="65" cy="257" r="1px" fill="black" />
<circle cx="1" cy="257" r="1px" fill="black" />
<circle cx="1" cy="321" r="1px" fill="black" />
<circle cx="1" cy="385" r="1px" fill="black" />
<circle cx="65" cy="385" r="1px" fill="black" />
<circle cx="65" cy="449" r="1px" fill="black" />
<circle cx="1" cy="449" r="1px" fill="black" />
<circle cx="1" cy="513" r="1px" fill="black" />
<circle cx="1" cy="577" r="1px" fill="black" />
<circle cx="65" cy="577" r="1px" fill="black" />
<circle cx="65" cy="513" r="1px" fill="black" />
<circle cx="129" cy="513" r="1px" fill="black" />
<circle cx="193" cy="513" r="1px" fill="black" />
<circle cx="193" cy="577" r="1px" fill="black" />
<circle cx="129" cy="577" r="1px" fill="black" />
<circle cx="129" cy="641" r="1px" fill="black" />
<circle cx="193" cy="641" r="1px" fill="black" />
<circle cx="193" cy="705" r="1px" fill="black" />
<circle cx="129" cy="705" r="1px" fill="black" />
<circle cx="65" cy="705" r="1px" fill="black" />
<circle cx="65" cy="641" r="1px" fill="black" />
<circle cx="1" cy="641" r="1px" fill="black" />
<circle cx="1" cy="705" r="1px" fill="black" />
<circle cx="1" cy="769" r="1px" fill="black" />
<circle cx="65" cy="769" r="1px" fill="black" />
<circle cx="65" cy="833" r="1px" fill="black" />
<circle cx="1" cy="833" r="1px" fill="black" />
<circle cx="1" cy="897" r="1px" fill="black" />
<circle cx="1" cy="961" r="1px" fill="black" />
<circle cx="65" cy="961" r="1px" fill="black" />
<circle cx="65" cy="897" r="1px" fill="black" />
<circle cx="129" cy="897" r="1px" fill="black" />
<circle cx="129" cy="961" r="1px" fill="black" />
<circle cx="193" cy="961" r="1px" fill="black" />
<circle cx="193" cy="897" r="1px" fill="black" />
<circle cx="193" cy="833" r="1px" fill="black" />
<circle cx="129" cy="833" r="1px" fill="black" />
<circle cx="129" cy="769" r="1px" fill="black" />
<circle cx="193" cy="769" r="1px" fill="black" />
<circle cx="257" cy="769" r="1px" fill="black" />
<circle cx="321" cy="769" r="1px" fill="black" />
<circle cx="321" cy="833" r="1px" fill="black" />
<circle cx="257" cy="833" r="1px" fill="black" />
<circle cx="257" cy="897" r="1px" fill="black" />
<circle cx="257" cy="961" r="1px" fill="black" />
<circle cx="321" cy="961" r="1px" fill="black" />
<circle cx="321" cy="897" r="1px" fill="black" />
<circle cx="385" cy="897" r="1px" fill="black" />
<circle cx="385" cy="961" r="1px" fill="black" />
<circle cx="449" cy="961" r="1px" fill="black" />
<circle cx="449" cy="897" r="1px" fill="black" />
<circle cx="449" cy="833" r="1px" fill="black" />
<circle cx="385" cy="833" r="1px" fill="black" />
<circle cx="385" cy="769" r="1px" fill="black" />
<circle cx="449" cy="769" r="1px" fill="black" />
<circle cx="449" cy="705" r="1px" fill="black" />
<circle cx="449" cy="641" r="1px" fill="black" />
<circle cx="385" cy="641" r="1px" fill="black" />
<circle cx="385" cy="705" r="1px" fill="black" />
<circle cx="321" cy="705" r="1px" fill="black" />
<circle cx="257" cy="705" r="1px" fill="black" />
<circle cx="257" cy="641" r="1px" fill="black" />
<circle cx="321" cy="641" r="1px" fill="black" />
<circle cx="321" cy="577" r="1px" fill="black" />
<circle cx="257" cy="577" r="1px" fill="black" />
<circle cx="257" cy="513" r="1px" fill="black" />
<circle cx="321" cy="513" r="1px" fill="black" />
<circle cx="385" cy="513" r="1px" fill="black" />
<circle cx="385" cy="577" r="1px" fill="black" />
<circle cx="449" cy="577" r="1px" fill="black" />
<circle cx="449" cy="513" r="1px" fill="black" />
<circle cx="513" cy="513" r="1px" fill="black" />
<circle cx="513" cy="577" r="1px" fill="black" />
<circle cx="577" cy="577" r="1px" fill="black" />
<circle cx="577" cy="513" r="1px" fill="black" />
<circle cx="641" cy="513" r="1px" fill="black" />
<circle cx="705" cy="513" r="1px" fill="black" />
<circle cx="705" cy="577" r="1px" fill="black" />
<circle cx="641" cy="577" r="1px" fill="black" />
<circle cx="641" cy="641" r="1px" fill="black" />
<circle cx="705" cy="641" r="1px" fill="black" />
<circle cx="705" cy="705" r="1px" fill="black" />
<circle cx="641" cy="705" r="1px" fill="black" />
<circle cx="577" cy="705" r="1px" fill="black" />
<circle cx="577" cy="641" r="1px" fill="black" />
<circle cx="513" cy="641" r="1px" fill="black" />
<circle cx="513" cy="705" r="1px" fill="black" />
<circle cx="513" cy="769" r="1px" fill="black" />
<circle cx="577" cy="769" r="1px" fill="black" />
<circle cx="577" cy="833" r="1px" fill="black" />
<circle cx="513" cy="833" r="1px" fill="black" />
<circle cx="513" cy="897" r="1px" fill="black" />
<circle cx="513" cy="961" r="1px" fill="black" />
<circle cx="577" cy="961" r="1px" fill="black" />
<circle cx="577" cy="897" r="1px" fill="black" />
<circle cx="641" cy="897" r="1px" fill="black" />
<circle cx="641" cy="961" r="1px" fill="black" />
<circle cx="705" cy="961" r="1px" fill="black" />
<circle cx="705" cy="897" r="1px" fill="black" />
<circle cx="705" cy="833" r="1px" fill="black" />
<circle cx="641" cy="833" r="1px" fill="black" />
<circle cx="641" cy="769" r="1px" fill="black" />
<circle cx="705" cy="769" r="1px" fill="black" />
<circle cx="769" cy="769" r="1px" fill="black" />
<circle cx="833" cy="769" r="1px" fill="black" />
<circle cx="833" cy="833" r="1px" fill="black" />
<circle cx="769" cy="833" r="1px" fill="black" />
<circle cx="769" cy="897" r="1px" fill="black" />
<circle cx="769" cy="961" r="1px" fill="black" />
<circle cx="833" cy="961" r="1px" fill="black" />
<circle cx="833" cy="897" r="1px" fill="black" />
<circle cx="897" cy="897" r="1px" fill="black" />
<circle cx="897" cy="961" r="1px" fill="black" />
<circle cx="961" cy="961" r="1px" fill="black" />
<circle cx="961" cy="897" r="1px" fill="black" />
<circle cx="961" cy="833" r="1px" fill="black" />
<circle cx="897" cy="833" r="1px" fill="black" />
<circle cx="897" cy="769" r="1px" fill="black" />
<circle cx="961" cy="769" r="1px" fill="black" />
<circle cx="961" cy="705" r="1px" fill="black" />
<circle cx="961" cy="641" r="1px" fill="black" />
<circle cx="897" cy="641" r="1px" fill="black" />
<circle cx="897" cy="705" r="1px" fill="black" />
<circle cx="833" cy="705" r="1px" fill="black" />
<circle cx="769" cy="705" r="1px" fill="black" />
<circle cx="769" cy="641" r="1px" fill="black" />
<circle cx="833" cy="641" r="1px" fill="black" />
<circle cx="833" cy="577" r="1px" fill="black" />
<circle cx="769" cy="577" r="1px" fill="black" />
<circle cx="769" cy="513" r="1px" fill="black" />
<circle cx="833" cy="513" r="1px" fill="black" />
<circle cx="897" cy="513" r="1px" fill="black" />
<circle cx="897" cy="577" r="1px" fill="black" />
<circle cx="961" cy="577" r="1px" fill="black" />
<circle cx="961" cy="513" r="1px" fill="black" />
<circle cx="961" cy="449" r="1px" fill="black" />
<circle cx="897" cy="449" r="1px" fill="black" />
<circle cx="897" cy="385" r="1px" fill="black" />
<circle cx="961" cy="385" r="1px" fill="black" />
<circle cx="961" cy="321" r="1px" fill="black" />
<circle cx="961" cy="257" r="1px" fill="black" />
<circle cx="897" cy="257" r="1px" fill="black" />
<circle cx="897" cy="321" r="1px" fill="black" />
<circle cx="833" cy="321" r="1px" fill="black" />
<circle cx="833" cy="257" r="1px" fill="black" />
<circle cx="769" cy="257" r="1px" fill="black" />
<circle cx="769" cy="321" r="1px" fill="black" />
<circle cx="769" cy="385" r="1px" fill="black" />
<circle cx="833" cy="385" r="1px" fill="black" />
<circle cx="833" cy="449" r="1px" fill="black" />
<circle cx="769" cy="449" r="1px" fill="black" />
<circle cx="705" cy="449" r="1px" fill="black" />
<circle cx="705" cy="385" r="1px" fill="black" />
<circle cx="641" cy="385" r="1px" fill="black" />
<circle cx="641" cy="449" r="1px" fill="black" />
<circle cx="577" cy="449" r="1px" fill="black" />
<circle cx="513" cy="449" r="1px" fill="black" />
<circle cx="513" cy="385" r="1px" fill="black" />
<circle cx="577" cy="385" r="1px" fill="black" />
<circle cx="577" cy="321" r="1px" fill="black" />
<circle cx="513" cy="321" r="1px" fill="black" />
<circle cx="513" cy="257" r="1px" fill="black" />
<circle cx="577" cy="257" r="1px" fill="black" />
<circle cx="641" cy="257" r="1px" fill="black" />
<circle cx="641" cy="321" r="1px" fill="black" />
<circle cx="705" cy="321" r="1px" fill="black" />
<circle cx="705" cy="257" r="1px" fill="black" />
<circle cx="705" cy="193" r="1px" fill="black" />
<circle cx="705" cy="129" r="1px" fill="black" />
<circle cx="641" cy="129" r="1px" fill="black" />
<circle cx="641" cy="193" r="1px" fill="black" />
<circle cx="577" cy="193" r="1px" fill="black" />
<circle cx="513" cy="193" r="1px" fill="black" />
<circle cx="513" cy="129" r="1px" fill="black" />
<circle cx="577" cy="129" r="1px" fill="black" />
<circle cx="577" cy="65" r="1px" fill="black" />
<circle cx="513" cy="65" r="1px" fill="black" />
<circle cx="513" cy="1" r="1px" fill="black" />
<circle cx="577" cy="1" r="1px" fill="black" />
<circle cx="641" cy="1" r="1px" fill="black" />
<circle cx="641" cy="65" r="1px" fill="black" />
<circle cx="705" cy="65" r="1px" fill="black" />
<circle cx="705" cy="1" r="1px" fill="black" />
<circle cx="769" cy="1" r="1px" fill="black" />
<circle cx="833" cy="1" r="1px" fill="black" />
<circle cx="833" cy="65" r="1px" fill="black" />
<circle cx="769" cy="65" r="1px" fill="black" />
<circle cx="769" cy="129" r="1px" fill="black" />
<circle cx="769" cy="193" r="1px" fill="black" />
<circle cx="833" cy="193" r="1px" fill="black" />
<circle cx="833" cy="129" r="1px" fill="black" />
<circle cx="897" cy="129" r="1px" fill="black" />
<circle cx="897" cy="193" r="1px" fill="black" />
<circle cx="961" cy="193" r="1px" fill="black" />
<circle cx="961" cy="129" r="1px" fill="black" />
<circle cx="961" cy="65" r="1px" fill="black" />
<circle cx="897" cy="65" r="1px" fill="black" />
<circle cx="897" cy="1" r="1px" fill="black" />
<circle cx="961" cy="1" r="1px" fill="black" />
<line x1="65" y1="1" x2="1" y2="1" style="fill:none;stroke:black;stroke-width:1" />
<line x1="65" y1="65" x2="65" y2="1" style="fill:none;stroke:black;stroke-width:1" />
<line x1="1" y1="65" x2="65" y2="65" style="fill:none;stroke:black;stroke-width:1" />
<line x1="1" y1="129" x2="1" y2="65" style="fill:none;stroke:black;stroke-width:1" />
<line x1="1" y1="193" x2="1" y2="129" style="fill:none;stroke:black;stroke-width:1" />
<line x1="65" y1="193" x2="1" y2="193" style="fill:none;stroke:black;stroke-width:1" />
<line x1="65" y1="129" x2="65" y2="193" style="fill:none;stroke:black;stroke-width:1" />
<line x1="129" y1="129" x2="65" y2="129" style="fill:none;stroke:black;stroke-width:1" />
<line x1="129" y1="193" x2="129" y2="129" style="fill:none;stroke:black;stroke-width:1" />
<line x1="193" y1="193" x2="129" y2="193" style="fill:none;stroke:black;stroke-width:1" />
<line x1="193" y1="129" x2="193" y2="193" style="fill:none;stroke:black;stroke-width:1" />
<line x1="193" y1="65" x2="193" y2="129" style="fill:none;stroke:black;stroke-width:1" />
<line x1="129" y1="65" x2="193" y2="65" style="fill:none;stroke:black;stroke-width:1" />
<line x1="129" y1="1" x2="129" y2="65" style="fill:none;stroke:black;stroke-width:1" />
<line x1="193" y1="1" x2="129" y2="1" style="fill:none;stroke:black;stroke-width:1" />
<line x1="257" y1="1" x2="193" y2="1" style="fill:none;stroke:black;stroke-width:1" />
<line x1="257" y1="65" x2="257" y2="1" style="fill:none;stroke:black;stroke-width:1" />
<line x1="321" y1="65" x2="257" y2="65" style="fill:none;stroke:black;stroke-width:1" />
<line x1="321" y1="1" x2="321" y2="65" style="fill:none;stroke:black;stroke-width:1" />
<line x1="385" y1="1" x2="321" y2="1" style="fill:none;stroke:black;stroke-width:1" />
<line x1="449" y1="1" x2="385" y2="1" style="fill:none;stroke:black;stroke-width:1" />
<line x1="449" y1="65" x2="449" y2="1" style="fill:none;stroke:black;stroke-width:1" />
<line x1="385" y1="65" x2="449" y2="65" style="fill:none;stroke:black;stroke-width:1" />
<line x1="385" y1="129" x2="385" y2="65" style="fill:none;stroke:black;stroke-width:1" />
<line x1="449" y1="129" x2="385" y2="129" style="fill:none;stroke:black;stroke-width:1" />
<line x1="449" y1="193" x2="449" y2="129" style="fill:none;stroke:black;stroke-width:1" />
<line x1="385" y1="193" x2="449" y2="193" style="fill:none;stroke:black;stroke-width:1" />
<line x1="321" y1="193" x2="385" y2="193" style="fill:none;stroke:black;stroke-width:1" />
<line x1="321" y1="129" x2="321" y2="193" style="fill:none;stroke:black;stroke-width:1" />
<line x1="257" y1="129" x2="321" y2="129" style="fill:none;stroke:black;stroke-width:1" />
<line x1="257" y1="193" x2="257" y2="129" style="fill:none;stroke:black;stroke-width:1" />
<line x1="257" y1="257" x2="257" y2="193" style="fill:none;stroke:black;stroke-width:1" />
<line x1="257" y1="321" x2="257" y2="257" style="fill:none;stroke:black;stroke-width:1" />
<line x1="321" y1="321" x2="257" y2="321" style="fill:none;stroke:black;stroke-width:1" />
<line x1="321" y1="257" x2="321" y2="321" style="fill:none;stroke:black;stroke-width:1" />
<line x1="385" y1="257" x2="321" y2="257" style="fill:none;stroke:black;stroke-width:1" />
<line x1="449" y1="257" x2="385" y2="257" style="fill:none;stroke:black;stroke-width:1" />
<line x1="449" y1="321" x2="449" y2="257" style="fill:none;stroke:black;stroke-width:1" />
<line x1="385" y1="321" x2="449" y2="321" style="fill:none;stroke:black;stroke-width:1" />
<line x1="385" y1="385" x2="385" y2="321" style="fill:none;stroke:black;stroke-width:1" />
<line x1="449" y1="385" x2="385" y2="385" style="fill:none;stroke:black;stroke-width:1" />
<line x1="449" y1="449" x2="449" y2="385" style="fill:none;stroke:black;stroke-width:1" />
<line x1="385" y1="449" x2="449" y2="449" style="fill:none;stroke:black;stroke-width:1" />
<line x1="321" y1="449" x2="385" y2="449" style="fill:none;stroke:black;stroke-width:1" />
<line x1="321" y1="385" x2="321" y2="449" style="fill:none;stroke:black;stroke-width:1" />
<line x1="257" y1="385" x2="321" y2="385" style="fill:none;stroke:black;stroke-width:1" />
<line x1="257" y1="449" x2="257" y2="385" style="fill:none;stroke:black;stroke-width:1" />
<line x1="193" y1="449" x2="257" y2="449" style="fill:none;stroke:black;stroke-width:1" />
<line x1="129" y1="449" x2="193" y2="449" style="fill:none;stroke:black;stroke-width:1" />
<line x1="129" y1="385" x2="129" y2="449" style="fill:none;stroke:black;stroke-width:1" />
<line x1="193" y1="385" x2="129" y2="385" style="fill:none;stroke:black;stroke-width:1" />
<line x1="193" y1="321" x2="193" y2="385" style="fill:none;stroke:black;stroke-width:1" />
<line x1="193" y1="257" x2="193" y2="321" style="fill:none;stroke:black;stroke-width:1" />
<line x1="129" y1="257" x2="193" y2="257" style="fill:none;stroke:black;stroke-width:1" />
<line x1="129" y1="321" x2="129" y2="257" style="fill:none;stroke:black;stroke-width:1" />
<line x1="65" y1="321" x2="129" y2="321" style="fill:none;stroke:black;stroke-width:1" />
<line x1="65" y1="257" x2="65" y2="321" style="fill:none;stroke:black;stroke-width:1" />
<line x1="1" y1="257" x2="65" y2="257" style="fill:none;stroke:black;stroke-width:1" />
<line x1="1" y1="321" x2="1" y2="257" style="fill:none;stroke:black;stroke-width:1" />
<line x1="1" y1="385" x2="1" y2="321" style="fill:none;stroke:black;stroke-width:1" />
<line x1="65" y1="385" x2="1" y2="385" style="fill:none;stroke:black;stroke-width:1" />
<line x1="65" y1="449" x2="65" y2="385" style="fill:none;stroke:black;stroke-width:1" />
<line x1="1" y1="449" x2="65" y2="449" style="fill:none;stroke:black;stroke-width:1" />
<line x1="1" y1="513" x2="1" y2="449" style="fill:none;stroke:black;stroke-width:1" />
<line x1="1" y1="577" x2="1" y2="513" style="fill:none;stroke:black;stroke-width:1" />
<line x1="65" y1="577" x2="1" y2="577" style="fill:none;stroke:black;stroke-width:1" />
<line x1="65" y1="513" x2="65" y2="577" style="fill:none;stroke:black;stroke-width:1" />
<line x1="129" y1="513" x2="65" y2="513" style="fill:none;stroke:black;stroke-width:1" />
<line x1="193" y1="513" x2="129" y2="513" style="fill:none;stroke:black;stroke-width:1" />
<line x1="193" y1="577" x2="193" y2="513" style="fill:none;stroke:black;stroke-width:1" />
<line x1="129" y1="577" x2="193" y2="577" style="fill:none;stroke:black;stroke-width:1" />
<line x1="129" y1="641" x2="129" y2="577" style="fill:none;stroke:black;stroke-width:1" />
<line x1="193" y1="641" x2="129" y2="641" style="fill:none;stroke:black;stroke-width:1" />
<line x1="193" y1="705" x2="193" y2="641" style="fill:none;stroke:black;stroke-width:1" />
<line x1="129" y1="705" x2="193" y2="705" style="fill:none;stroke:black;stroke-width:1" />
<line x1="65" y1="705" x2="129" y2="705" style="fill:none;stroke:black;stroke-width:1" />
<line x1="65" y1="641" x2="65" y2="705" style="fill:none;stroke:black;stroke-width:1" />
<line x1="1" y1="641" x2="65" y2="641" style="fill:none;stroke:black;stroke-width:1" />
<line x1="1" y1="705" x2="1" y2="641" style="fill:none;stroke:black;stroke-width:1" />
<line x1="1" y1="769" x2="1" y2="705" style="fill:none;stroke:black;stroke-width:1" />
<line x1="65" y1="769" x2="1" y2="769" style="fill:none;stroke:black;stroke-width:1" />
<line x1="65" y1="833" x2="65" y2="769" style="fill:none;stroke:black;stroke-width:1" />
<line x1="1" y1="833" x2="65" y2="833" style="fill:none;stroke:black;stroke-width:1" />
<line x1="1" y1="897" x2="1" y2="833" style="fill:none;stroke:black;stroke-width:1" />
<line x1="1" y1="961" x2="1" y2="897" style="fill:none;stroke:black;stroke-width:1" />
<line x1="65" y1="961" x2="1" y2="961" style="fill:none;stroke:black;stroke-width:1" />
<line x1="65" y1="897" x2="65" y2="961" style="fill:none;stroke:black;stroke-width:1" />
<line x1="129" y1="897" x2="65" y2="897" style="fill:none;stroke:black;stroke-width:1" />
<line x1="129" y1="961" x2="129" y2="897" style="fill:none;stroke:black;stroke-width:1" />
<line x1="193" y1="961" x2="129" y2="961" style="fill:none;stroke:black;stroke-width:1" />
<line x1="193" y1="897" x2="193" y2="961" style="fill:none;stroke:black;stroke-width:1" />
<line x1="193" y1="833" x2="193" y2="897" style="fill:none;stroke:black;stroke-width:1" />
<line x1="129" y1="833" x2="193" y2="833" style="fill:none;stroke:black;stroke-width:1" />
<line x1="129" y1="769" x2="129" y2="833" style="fill:none;stroke:black;stroke-width:1" />
<line x1="193" y1="769" x2="129" y2="769" style="fill:none;stroke:black;stroke-width:1" />
<line x1="257" y1="769" x2="193" y2="769" style="fill:none;stroke:black;stroke-width:1" />
<line x1="321" y1="769" x2="257" y2="769" style="fill:none;stroke:black;stroke-width:1" />
<line x1="321" y1="833" x2="321" y2="769" style="fill:none;stroke:black;stroke-width:1" />
<line x1="257" y1="833" x2="321" y2="833" style="fill:none;stroke:black;stroke-width:1" />
<line x1="257" y1="897" x2="257" y2="833" style="fill:none;stroke:black;stroke-width:1" />
<line x1="257" y1="961" x2="257" y2="897" style="fill:none;stroke:black;stroke-width:1" />
<line x1="321" y1="961" x2="257" y2="961" style="fill:none;stroke:black;stroke-width:1" />
<line x1="321" y1="897" x2="321" y2="961" style="fill:none;stroke:black;stroke-width:1" />
<line x1="385" y1="897" x2="321" y2="897" style="fill:none;stroke:black;stroke-width:1" />
<line x1="385" y1="961" x2="385" y2="897" style="fill:none;stroke:black;stroke-width:1" />
<line x1="449" y1="961" x2="385" y2="961" style="fill:none;stroke:black;stroke-width:1" />
<line x1="449" y1="897" x2="449" y2="961" style="fill:none;stroke:black;stroke-width:1" />
<line x1="449" y1="833" x2="449" y2="897" style="fill:none;stroke:black;stroke-width:1" />
<line x1="385" y1="833" x2="449" y2="833" style="fill:none;stroke:black;stroke-width:1" />
<line x1="385" y1="769" x2="385" y2="833" style="fill:none;stroke:black;stroke-width:1" />
<line x1="449" y1="769" x2="385" y2="769" style="fill:none;stroke:black;stroke-width:1" />
<line x1="449" y1="705" x2="449" y2="769" style="fill:none;stroke:black;stroke-width:1" />
<line x1="449" y1="641" x2="449" y2="705" style="fill:none;stroke:black;stroke-width:1" />
<line x1="385" y1="641" x2="449" y2="641" style="fill:none;stroke:black;stroke-width:1" />
<line x1="385" y1="705" x2="385" y2="641" style="fill:none;stroke:black;stroke-width:1" />
<line x1="321" y1="705" x2="385" y2="705" style="fill:none;stroke:black;stroke-width:1" />
<line x1="257" y1="705" x2="321" y2="705" style="fill:none;stroke:black;stroke-width:1" />
<line x1="257" y1="641" x2="257" y2="705" style="fill:none;stroke:black;stroke-width:1" />
<line x1="321" y1="641" x2="257" y2="641" style="fill:none;stroke:black;stroke-width:1" />
<line x1="321" y1="577" x2="321" y2="641" style="fill:none;stroke:black;stroke-width:1" />
<line x1="257" y1="577" x2="321" y2="577" style="fill:none;stroke:black;stroke-width:1" />
<line x1="257" y1="513" x2="257" y2="577" style="fill:none;stroke:black;stroke-width:1" />
<line x1="321" y1="513" x2="257" y2="513" style="fill:none;stroke:black;stroke-width:1" />
<line x1="385" y1="513" x2="321" y2="513" style="fill:none;stroke:black;stroke-width:1" />
<line x1="385" y1="577" x2="385" y2="513" style="fill:none;stroke:black;stroke-width:1" />
<line x1="449" y1="577" x2="385" y2="577" style="fill:none;stroke:black;stroke-width:1" />
<line x1="449" y1="513" x2="449" y2="577" style="fill:none;stroke:black;stroke-width:1" />
<line x1="513" y1="513" x2="449" y2="513" style="fill:none;stroke:black;stroke-width:1" />
<line x1="513" y1="577" x2="513" y2="513" style="fill:none;stroke:black;stroke-width:1" />
<line x1="577" y1="577" x2="513" y2="577" style="fill:none;stroke:black;stroke-width:1" />
<line x1="577" y1="513" x2="577" y2="577" style="fill:none;stroke:black;stroke-width:1" />
<line x1="641" y1="513" x2="577" y2="513" style="fill:none;stroke:black;stroke-width:1" />
<line x1="705" y1="513" x2="641" y2="513" style="fill:none;stroke:black;stroke-width:1" />
<line x1="705" y1="577" x2="705" y2="513" style="fill:none;stroke:black;stroke-width:1" />
<line x1="641" y1="577" x2="705" y2="577" style="fill:none;stroke:black;stroke-width:1" />
<line x1="641" y1="641" x2="641" y2="577" style="fill:none;stroke:black;stroke-width:1" />
<line x1="705" y1="641" x2="641" y2="641" style="fill:none;stroke:black;stroke-width:1" />
<line x1="705" y1="705" x2="705" y2="641" style="fill:none;stroke:black;stroke-width:1" />
<line x1="641" y1="705" x2="705" y2="705" style="fill:none;stroke:black;stroke-width:1" />
<line x1="577" y1="705" x2="641" y2="705" style="fill:none;stroke:black;stroke-width:1" />
<line x1="577" y1="641" x2="577" y2="705" style="fill:none;stroke:black;stroke-width:1" />
<line x1="513" y1="641" x2="577" y2="641" style="fill:none;stroke:black;stroke-width:1" />
<line x1="513" y1="705" x2="513" y2="641" style="fill:none;stroke:black;stroke-width:1" />
<line x1="513" y1="769" x2="513" y2="705" style="fill:none;stroke:black;stroke-width:1" />
<line x1="577" y1="769" x2="513" y2="769" style="fill:none;stroke:black;stroke-width:1" />
<line x1="577" y1="833" x2="577" y2="769" style="fill:none;stroke:black;stroke-width:1" />
<line x1="513" y1="833" x2="577" y2="833" style="fill:none;stroke:black;stroke-width:1" />
<line x1="513" y1="897" x2="513" y2="833" style="fill:none;stroke:black;stroke-width:1" />
<line x1="513" y1="961" x2="513" y2="897" style="fill:none;stroke:black;stroke-width:1" />
<line x1="577" y1="961" x2="513" y2="961" style="fill:none;stroke:black;stroke-width:1" />
<line x1="577" y1="897" x2="577" y2="961" style="fill:none;stroke:black;stroke-width:1" />
<line x1="641" y1="897" x2="577" y2="897" style="fill:none;stroke:black;stroke-width:1" />
<line x1="641" y1="961" x2="641" y2="897" style="fill:none;stroke:black;stroke-width:1" />
<line x1="705" y1="961" x2="641" y2="961" style="fill:none;stroke:black;stroke-width:1" />
<line x1="705" y1="897" x2="705" y2="961" style="fill:none;stroke:black;stroke-width:1" />
<line x1="705" y1="833" x2="705" y2="897" style="fill:none;stroke:black;stroke-width:1" />
<line x1="641" y1="833" x2="705" y2="833" style="fill:none;stroke:black;stroke-width:1" />
<line x1="641" y1="769" x2="641" y2="833" style="fill:none;stroke:black;stroke-width:1" />
<line x1="705" y1="769" x2="641" y2="769" style="fill:none;stroke:black;stroke-width:1" />
<line x1="769" y1="769" x2="705" y2="769" style="fill:none;stroke:black;stroke-width:1" />
<line x1="833" y1="769" x2="769" y2="769" style="fill:none;stroke:black;stroke-width:1" />
<line x1="833" y1="833" x2="833" y2="769" style="fill:none;stroke:black;stroke-width:1" />
<line x1="769" y1="833" x2="833" y2="833" style="fill:none;stroke:black;stroke-width:1" />
<line x1="769" y1="897" x2="769" y2="833" style="fill:none;stroke:black;stroke-width:1" />
<line x1="769" y1="961" x2="769" y2="897" style="fill:none;stroke:black;stroke-width:1" />
<line x1="833" y1="961" x2="769" y2="961" style="fill:none;stroke:black;stroke-width:1" />
<line x1="833" y1="897" x2="833" y2="961" style="fill:none;stroke:black;stroke-width:1" />
<line x1="897" y1="897" x2="833" y2="897" style="fill:none;stroke:black;stroke-width:1" />
<line x1="897" y1="961" x2="897" y2="897" style="fill:none;stroke:black;stroke-width:1" />
<line x1="961" y1="961" x2="897" y2="961" style="fill:none;stroke:black;stroke-width:1" />
<line x1="961" y1="897" x2="961" y2="961" style="fill:none;stroke:black;stroke-width:1" />
<line x1="961" y1="833" x2="961" y2="897" style="fill:none;stroke:black;stroke-width:1" />
<line x1="897" y1="833" x2="961" y2="833" style="fill:none;stroke:black;stroke-width:1" />
<line x1="897" y1="769" x2="897" y2="833" style="fill:none;stroke:black;stroke-width:1" />
<line x1="961" y1="769" x2="897" y2="769" style="fill:none;stroke:black;stroke-width:1" />
<line x1="961" y1="705" x2="961" y2="769" style="fill:none;stroke:black;stroke-width:1" />
<line x1="961" y1="641" x2="961" y2="705" style="fill:none;stroke:black;stroke-width:1" />
<line x1="897" y1="641" x2="961" y2="641" style="fill:none;stroke:black;stroke-width:1" />
<line x1="897" y1="705" x2="897" y2="641" style="fill:none;stroke:black;stroke-width:1" />
<line x1="833" y1="705" x2="897" y2="705" style="fill:none;stroke:black;stroke-width:1" />
<line x1="769" y1="705" x2="833" y2="705" style="fill:none;stroke:black;stroke-width:1" />
<line x1="769" y1="641" x2="769" y2="705" style="fill:none;stroke:black;stroke-width:1" />
<line x1="833" y1="641" x2="769" y2="641" style="fill:none;stroke:black;stroke-width:1" />
<line x1="833" y1="577" x2="833" y2="641" style="fill:none;stroke:black;stroke-width:1" />
<line x1="769" y1="577" x2="833" y2="577" style="fill:none;stroke:black;stroke-width:1" />
<line x1="769" y1="513" x2="769" y2="577" style="fill:none;stroke:black;stroke-width:1" />
<line x1="833" y1="513" x2="769" y2="513" style="fill:none;stroke:black;stroke-width:1" />
<line x1="897" y1="513" x2="833" y2="513" style="fill:none;stroke:black;stroke-width:1" />
<line x1="897" y1="577" x2="897" y2="513" style="fill:none;stroke:black;stroke-width:1" />
<line x1="961" y1="577" x2="897" y2="577" style="fill:none;stroke:black;stroke-width:1" />
<line x1="961" y1="513" x2="961" y2="577" style="fill:none;stroke:black;stroke-width:1" />
<line x1="961" y1="449" x2="961" y2="513" style="fill:none;stroke:black;stroke-width:1" />
<line x1="897" y1="449" x2="961" y2="449" style="fill:none;stroke:black;stroke-width:1" />
<line x1="897" y1="385" x2="897" y2="449" style="fill:none;stroke:black;stroke-width:1" />
<line x1="961" y1="385" x2="897" y2="385" style="fill:none;stroke:black;stroke-width:1" />
<line x1="961" y1="321" x2="961" y2="385" style="fill:none;stroke:black;stroke-width:1" />
<line x1="961" y1="257" x2="961" y2="321" style="fill:none;stroke:black;stroke-width:1" />
<line x1="897" y1="257" x2="961" y2="257" style="fill:none;stroke:black;stroke-width:1" />
<line x1="897" y1="321" x2="897" y2="257" style="fill:none;stroke:black;stroke-width:1" />
<line x1="833" y1="321" x2="897" y2="321" style="fill:none;stroke:black;stroke-width:1" />
<line x1="833" y1="257" x2="833" y2="321" style="fill:none;stroke:black;stroke-width:1" />
<line x1="769" y1="257" x2="833" y2="257" style="fill:none;stroke:black;stroke-width:1" />
<line x1="769" y1="321" x2="769" y2="257" style="fill:none;stroke:black;stroke-width:1" />
<line x1="769" y1="385" x2="769" y2="321" style="fill:none;stroke:black;stroke-width:1" />
<line x1="833" y1="385" x2="769" y2="385" style="fill:none;stroke:black;stroke-width:1" />
<line x1="833" y1="449" x2="833" y2="385" style="fill:none;stroke:black;stroke-width:1" />
<line x1="769" y1="449" x2="833" y2="449" style="fill:none;stroke:black;stroke-width:1" />
<line x1="705" y1="449" x2="769" y2="449" style="fill:none;stroke:black;stroke-width:1" />
<line x1="705" y1="385" x2="705" y2="449" style="fill:none;stroke:black;stroke-width:1" />
<line x1="641" y1="385" x2="705" y2="385" style="fill:none;stroke:black;stroke-width:1" />
<line x1="641" y1="449" x2="641" y2="385" style="fill:none;stroke:black;stroke-width:1" />
<line x1="577" y1="449" x2="641" y2="449" style="fill:none;stroke:black;stroke-width:1" />
<line x1="513" y1="449" x2="577" y2="449" style="fill:none;stroke:black;stroke-width:1" />
<line x1="513" y1="385" x2="513" y2="449" style="fill:none;stroke:black;stroke-width:1" />
<line x1="577" y1="385" x2="513" y2="385" style="fill:none;stroke:black;stroke-width:1" />
<line x1="577" y1="321" x2="577" y2="385" style="fill:none;stroke:black;stroke-width:1" />
<line x1="513" y1="321" x2="577" y2="321" style="fill:none;stroke:black;stroke-width:1" />
<line x1="513" y1="257" x2="513" y2="321" style="fill:none;stroke:black;stroke-width:1" />
<line x1="577" y1="257" x2="513" y2="257" style="fill:none;stroke:black;stroke-width:1" />
<line x1="641" y1="257" x2="577" y2="257" style="fill:none;stroke:black;stroke-width:1" />
<line x1="641" y1="321" x2="641" y2="257" style="fill:none;stroke:black;stroke-width:1" />
<line x1="705" y1="321" x2="641" y2="321" style="fill:none;stroke:black;stroke-width:1" />
<line x1="705" y1="257" x2="705" y2="321" style="fill:none;stroke:black;stroke-width:1" />
<line x1="705" y1="193" x2="705" y2="257" style="fill:none;stroke:black;stroke-width:1" />
<line x1="705" y1="129" x2="705" y2="193" style="fill:none;stroke:black;stroke-width:1" />
<line x1="641" y1="129" x2="705" y2="129" style="fill:none;stroke:black;stroke-width:1" />
<line x1="641" y1="193" x2="641" y2="129" style="fill:none;stroke:black;stroke-width:1" />
<line x1="577" y1="193" x2="641" y2="193" style="fill:none;stroke:black;stroke-width:1" />
<line x1="513" y1="193" x2="577" y2="193" style="fill:none;stroke:black;stroke-width:1" />
<line x1="513" y1="129" x2="513" y2="193" style="fill:none;stroke:black;stroke-width:1" />
<line x1="577" y1="129" x2="513" y2="129" style="fill:none;stroke:black;stroke-width:1" />
<line x1="577" y1="65" x2="577" y2="129" style="fill:none;stroke:black;stroke-width:1" />
<line x1="513" y1="65" x2="577" y2="65" style="fill:none;stroke:black;stroke-width:1" />
<line x1="513" y1="1" x2="513" y2="65" style="fill:none;stroke:black;stroke-width:1" />
<line x1="577" y1="1" x2="513" y2="1" style="fill:none;stroke:black;stroke-width:1" />
<line x1="641" y1="1" x2="577" y2="1" style="fill:none;stroke:black;stroke-width:1" />
<line x1="641" y1="65" x2="641" y2="1" style="fill:none;stroke:black;stroke-width:1" />
<line x1="705" y1="65" x2="641" y2="65" style="fill:none;stroke:black;stroke-width:1" />
<line x1="705" y1="1" x2="705" y2="65" style="fill:none;stroke:black;stroke-width:1" />
<line x1="769" y1="1" x2="705" y2="1" style="fill:none;stroke:black;stroke-width:1" />
<line x1="833" y1="1" x2="769" y2="1" style="fill:none;stroke:black;stroke-width:1" />
<line x1="833" y1="65" x2="833" y2="1" style="fill:none;stroke:black;stroke-width:1" />
<line x1="769" y1="65" x2="833" y2="65" style="fill:none;stroke:black;stroke-width:1" />
<line x1="769" y1="129" x2="769" y2="65" style="fill:none;stroke:black;stroke-width:1" />
<line x1="769" y1="193" x2="769" y2="129" style="fill:none;stroke:black;stroke-width:1" />
<line x1="833" y1="193" x2="769" y2="193" style="fill:none;stroke:black;stroke-width:1" />
<line x1="833" y1="129" x2="833" y2="193" style="fill:none;stroke:black;stroke-width:1" />
<line x1="897" y1="129" x2="833" y2="129" style="fill:none;stroke:black;stroke-width:1" />
<line x1="897" y1="193" x2="897" y2="129" style="fill:none;stroke:black;stroke-width:1" />
<line x1="961" y1="193" x2="897" y2="193" style="fill:none;stroke:black;stroke-width:1" />
<line x1="961" y1="129" x2="961" y2="193" style="fill:none;stroke:black;stroke-width:1" />
<line x1="961" y1="65" x2="961" y2="129" style="fill:none;stroke:black;stroke-width:1" />
<line x1="897" y1="65" x2="961" y2="65" style="fill:none;stroke:black;stroke-width:1" />
<line x1="897" y1="1" x2="897" y2="65" style="fill:none;stroke:black;stroke-width:1" />
<line x1="961" y1="1" x2="897" y2="1" style="fill:none;stroke:black;stroke-width:1" />
</svg>