<?xml version="1.0" encoding="utf-8" ?>
<svg xmlns="http://www.w3.org/2000/svg" width="1000" height="1000">
	<defs>
		<marker id="arrow" markerWidth="5" markerHeight="5" refX="0" refY="3" orient="auto" markerUnits="strokeWidth" >
			<path d="M0,0 L0,6 L9,3 z" fill="#000" />
		</marker>
	</defs>

	<line x1="0" y1="0" x2="1000" y2="0" style="fill:none;stroke:black;stroke-width:3" marker-end="url(#arrow)" />
	<line x1="0" y1="0" x2="0" y2="1000" style="fill:none;stroke:black;stroke-width:3" marker-end="url(#arrow)" />
	<circle cx="0" cy="875" r="5px" />
	<circle cx="125" cy="875" r="5px" />
	<circle cx="250" cy="875" r="5px" />
	<circle cx="375" cy="875" r="5px" />
	<circle cx="0" cy="750" r="5px" />
	<circle cx="125" cy="750" r="5px" />
	<circle cx="0" cy="625" r="5px" />
	<circle cx="125" cy="625" r="5px" />
	<circle cx="250" cy="750" r="5px" />
	<circle cx="375" cy="750" r="5px" />
	<circle cx="250" cy="625" r="5px" />
	<circle cx="375" cy="625" r="5px" />
	<circle cx="500" cy="875" r="5px" />
	<circle cx="625" cy="875" r="5px" />
	<circle cx="750" cy="875" r="5px" />
	<circle cx="875" cy="875" r="5px" />
	<circle cx="500" cy="750" r="5px" />
	<circle cx="625" cy="750" r="5px" />
	<circle cx="500" cy="625" r="5px" />
	<circle cx="625" cy="625" r="5px" />
	<circle cx="750" cy="750" r="5px" />
	<circle cx="875" cy="750" r="5px" />
	<circle cx="750" cy="625" r="5px" />
	<circle cx="875" cy="625" r="5px" />
	<circle cx="0" cy="500" r="5px" />
	<circle cx="125" cy="500" r="5px" />
	<circle cx="0" cy="375" r="5px" />
	<circle cx="125" cy="375" r="5px" />
	<circle cx="250" cy="500" r="5px" />
	<circle cx="375" cy="500" r="5px" />
	<circle cx="250" cy="375" r="5px" />
	<circle cx="375" cy="375" r="5px" />
	<circle cx="0" cy="250" r="5px" />
	<circle cx="125" cy="250" r="5px" />
	<circle cx="0" cy="125" r="5px" />
	<circle cx="0" cy="0" r="5px" />
	<circle cx="125" cy="125" r="5px" />
	<circle cx="125" cy="0" r="5px" />
	<circle cx="250" cy="250" r="5px" />
	<circle cx="375" cy="250" r="5px" />
	<circle cx="250" cy="125" r="5px" />
	<circle cx="250" cy="0" r="5px" />
	<circle cx="375" cy="125" r="5px" />
	<circle cx="375" cy="0" r="5px" />
	<circle cx="500" cy="500" r="5px" />
	<circle cx="625" cy="500" r="5px" />
	<circle cx="500" cy="375" r="5px" />
	<circle cx="625" cy="375" r="5px" />
	<circle cx="750" cy="500" r="5px" />
	<circle cx="875" cy="500" r="5px" />
	<circle cx="750" cy="375" r="5px" />
	<circle cx="875" cy="375" r="5px" />
	<circle cx="500" cy="250" r="5px" />
	<circle cx="625" cy="250" r="5px" />
	<circle cx="500" cy="125" r="5px" />
	<circle cx="500" cy="0" r="5px" />
	<circle cx="625" cy="125" r="5px" />
	<circle cx="625" cy="0" r="5px" />
	<circle cx="750" cy="250" r="5px" />
	<circle cx="875" cy="250" r="5px" />
	<circle cx="750" cy="125" r="5px" />
	<circle cx="750" cy="0" r="5px" />
	<circle cx="875" cy="125" r="5px" />
	<circle cx="875" cy="0" r="5px" />
	<line x1="0" y1="875" x2="125" y2="875" style="fill:none;stroke:black;stroke-width:1" />
	<line x1="125" y1="875" x2="250" y2="875" style="fill:none;stroke:black;stroke-width:1" />
	<line x1="250" y1="875" x2="375" y2="875" style="fill:none;stroke:black;stroke-width:1" />
	<line x1="375" y1="875" x2="0" y2="750" style="fill:none;stroke:black;stroke-width:1" />
	<line x1="0" y1="750" x2="125" y2="750" style="fill:none;stroke:black;stroke-width:1" />
	<line x1="125" y1="750" x2="0" y2="625" style="fill:none;stroke:black;stroke-width:1" />
	<line x1="0" y1="625" x2="125" y2="625" style="fill:none;stroke:black;stroke-width:1" />
	<line x1="125" y1="625" x2="250" y2="750" style="fill:none;stroke:black;stroke-width:1" />
	<line x1="250" y1="750" x2="375" y2="750" style="fill:none;stroke:black;stroke-width:1" />
	<line x1="375" y1="750" x2="250" y2="625" style="fill:none;stroke:black;stroke-width:1" />
	<line x1="250" y1="625" x2="375" y2="625" style="fill:none;stroke:black;stroke-width:1" />
	<line x1="375" y1="625" x2="500" y2="875" style="fill:none;stroke:black;stroke-width:1" />
	<line x1="500" y1="875" x2="625" y2="875" style="fill:none;stroke:black;stroke-width:1" />
	<line x1="625" y1="875" x2="750" y2="875" style="fill:none;stroke:black;stroke-width:1" />
	<line x1="750" y1="875" x2="875" y2="875" style="fill:none;stroke:black;stroke-width:1" />
	<line x1="875" y1="875" x2="500" y2="750" style="fill:none;stroke:black;stroke-width:1" />
	<line x1="500" y1="750" x2="625" y2="750" style="fill:none;stroke:black;stroke-width:1" />
	<line x1="625" y1="750" x2="500" y2="625" style="fill:none;stroke:black;stroke-width:1" />
	<line x1="500" y1="625" x2="625" y2="625" style="fill:none;stroke:black;stroke-width:1" />
	<line x1="625" y1="625" x2="750" y2="750" style="fill:none;stroke:black;stroke-width:1" />
	<line x1="750" y1="750" x2="875" y2="750" style="fill:none;stroke:black;stroke-width:1" />
	<line x1="875" y1="750" x2="750" y2="625" style="fill:none;stroke:black;stroke-width:1" />
	<line x1="750" y1="625" x2="875" y2="625" style="fill:none;stroke:black;stroke-width:1" />
	<line x1="875" y1="625" x2="0" y2="500" style="fill:none;stroke:black;stroke-width:1" />
	<line x1="0" y1="500" x2="125" y2="500" style="fill:none;stroke:black;stroke-width:1" />
	<line x1="125" y1="500" x2="0" y2="375" style="fill:none;stroke:black;stroke-width:1" />
	<line x1="0" y1="375" x2="125" y2="375" style="fill:none;stroke:black;stroke-width:1" />
	<line x1="125" y1="375" x2="250" y2="500" style="fill:none;stroke:black;stroke-width:1" />
	<line x1="250" y1="500" x2="375" y2="500" style="fill:none;stroke:black;stroke-width:1" />
	<line x1="375" y1="500" x2="250" y2="375" style="fill:none;stroke:black;stroke-width:1" />
	<line x1="250" y1="375" x2="375" y2="375" style="fill:none;stroke:black;stroke-width:1" />
	<line x1="375" y1="375" x2="0" y2="250" style="fill:none;stroke:black;stroke-width:1" />
	<line x1="0" y1="250" x2="125" y2="250" style="fill:none;stroke:black;stroke-width:1" />
	<line x1="125" y1="250" x2="0" y2="125" style="fill:none;stroke:black;stroke-width:1" />
	<line x1="0" y1="125" x2="0" y2="0" style="fill:none;stroke:black;stroke-width:1" />
	<line x1="0" y1="0" x2="125" y2="125" style="fill:none;stroke:black;stroke-width:1" />
	<line x1="125" y1="125" x2="125" y2="0" style="fill:none;stroke:black;stroke-width:1" />
	<line x1="125" y1="0" x2="250" y2="250" style="fill:none;stroke:black;stroke-width:1" />
	<line x1="250" y1="250" x2="375" y2="250" style="fill:none;stroke:black;stroke-width:1" />
	<line x1="375" y1="250" x2="250" y2="125" style="fill:none;stroke:black;stroke-width:1" />
	<line x1="250" y1="125" x2="250" y2="0" style="fill:none;stroke:black;stroke-width:1" />
	<line x1="250" y1="0" x2="375" y2="125" style="fill:none;stroke:black;stroke-width:1" />
	<line x1="375" y1="125" x2="375" y2="0" style="fill:none;stroke:black;stroke-width:1" />
	<line x1="375" y1="0" x2="500" y2="500" style="fill:none;stroke:black;stroke-width:1" />
	<line x1="500" y1="500" x2="625" y2="500" style="fill:none;stroke:black;stroke-width:1" />
	<line x1="625" y1="500" x2="500" y2="375" style="fill:none;stroke:black;stroke-width:1" />
	<line x1="500" y1="375" x2="625" y2="375" style="fill:none;stroke:black;stroke-width:1" />
	<line x1="625" y1="375" x2="750" y2="500" style="fill:none;stroke:black;stroke-width:1" />
	<line x1="750" y1="500" x2="875" y2="500" style="fill:none;stroke:black;stroke-width:1" />
	<line x1="875" y1="500" x2="750" y2="375" style="fill:none;stroke:black;stroke-width:1" />
	<line x1="750" y1="375" x2="875" y2="375" style="fill:none;stroke:black;stroke-width:1" />
	<line x1="875" y1="375" x2="500" y2="250" style="fill:none;stroke:black;stroke-width:1" />
	<line x1="500" y1="250" x2="625" y2="250" style="fill:none;stroke:black;stroke-width:1" />
	<line x1="625" y1="250" x2="500" y2="125" style="fill:none;stroke:black;stroke-width:1" />
	<line x1="500" y1="125" x2="500" y2="0" style="fill:none;stroke:black;stroke-width:1" />
	<line x1="500" y1="0" x2="625" y2="125" style="fill:none;stroke:black;stroke-width:1" />
	<line x1="625" y1="125" x2="625" y2="0" style="fill:none;stroke:black;stroke-width:1" />
	<line x1="625" y1="0" x2="750" y2="250" style="fill:none;stroke:black;stroke-width:1" />
	<line x1="750" y1="250" x2="875" y2="250" style="fill:none;stroke:black;stroke-width:1" />
	<line x1="875" y1="250" x2="750" y2="125" style="fill:none;stroke:black;stroke-width:1" />
	<line x1="750" y1="125" x2="750" y2="0" style="fill:none;stroke:black;stroke-width:1" />
	<line x1="750" y1="0" x2="875" y2="125" style="fill:none;stroke:black;stroke-width:1" />
	<line x1="875" y1="125" x2="875" y2="0" style="fill:none;stroke:black;stroke-width:1" />
</svg>