<?xml version="1.0" encoding="utf-8" ?>
<svg xmlns="http://www.w3.org/2000/svg" width="1000" height="1000">
	<defs>
		<marker id="arrow" markerWidth="5" markerHeight="5" refX="0" refY="3" orient="auto" markerUnits="strokeWidth" >
			<path d="M0,0 L0,6 L9,3 z" fill="#000" />
		</marker>
	</defs>

	<line x1="0" y1="0" x2="1000" y2="0" style="fill:none;stroke:black;stroke-width:3" marker-end="url(#arrow)" />
	<line x1="0" y1="0" x2="0" y2="1000" style="fill:none;stroke:black;stroke-width:3" marker-end="url(#arrow)" />
	<circle cx="0" cy="937" r="5px" />
	<circle cx="62" cy="937" r="5px" />
	<circle cx="125" cy="937" r="5px" />
	<circle cx="187" cy="937" r="5px" />
	<circle cx="0" cy="875" r="5px" />
	<circle cx="62" cy="875" r="5px" />
	<circle cx="0" cy="812" r="5px" />
	<circle cx="62" cy="812" r="5px" />
	<circle cx="125" cy="875" r="5px" />
	<circle cx="187" cy="875" r="5px" />
	<circle cx="125" cy="812" r="5px" />
	<circle cx="187" cy="812" r="5px" />
	<circle cx="250" cy="937" r="5px" />
	<circle cx="312" cy="937" r="5px" />
	<circle cx="375" cy="937" r="5px" />
	<circle cx="437" cy="937" r="5px" />
	<circle cx="250" cy="875" r="5px" />
	<circle cx="312" cy="875" r="5px" />
	<circle cx="250" cy="812" r="5px" />
	<circle cx="312" cy="812" r="5px" />
	<circle cx="375" cy="875" r="5px" />
	<circle cx="437" cy="875" r="5px" />
	<circle cx="375" cy="812" r="5px" />
	<circle cx="437" cy="812" r="5px" />
	<circle cx="0" cy="750" r="5px" />
	<circle cx="62" cy="750" r="5px" />
	<circle cx="0" cy="687" r="5px" />
	<circle cx="62" cy="687" r="5px" />
	<circle cx="125" cy="750" r="5px" />
	<circle cx="187" cy="750" r="5px" />
	<circle cx="125" cy="687" r="5px" />
	<circle cx="187" cy="687" r="5px" />
	<circle cx="0" cy="625" r="5px" />
	<circle cx="62" cy="625" r="5px" />
	<circle cx="0" cy="562" r="5px" />
	<circle cx="62" cy="562" r="5px" />
	<circle cx="125" cy="625" r="5px" />
	<circle cx="187" cy="625" r="5px" />
	<circle cx="125" cy="562" r="5px" />
	<circle cx="187" cy="562" r="5px" />
	<circle cx="250" cy="750" r="5px" />
	<circle cx="312" cy="750" r="5px" />
	<circle cx="250" cy="687" r="5px" />
	<circle cx="312" cy="687" r="5px" />
	<circle cx="375" cy="750" r="5px" />
	<circle cx="437" cy="750" r="5px" />
	<circle cx="375" cy="687" r="5px" />
	<circle cx="437" cy="687" r="5px" />
	<circle cx="250" cy="625" r="5px" />
	<circle cx="312" cy="625" r="5px" />
	<circle cx="250" cy="562" r="5px" />
	<circle cx="312" cy="562" r="5px" />
	<circle cx="375" cy="625" r="5px" />
	<circle cx="437" cy="625" r="5px" />
	<circle cx="375" cy="562" r="5px" />
	<circle cx="437" cy="562" r="5px" />
	<circle cx="500" cy="937" r="5px" />
	<circle cx="562" cy="937" r="5px" />
	<circle cx="625" cy="937" r="5px" />
	<circle cx="687" cy="937" r="5px" />
	<circle cx="500" cy="875" r="5px" />
	<circle cx="562" cy="875" r="5px" />
	<circle cx="500" cy="812" r="5px" />
	<circle cx="562" cy="812" r="5px" />
	<circle cx="625" cy="875" r="5px" />
	<circle cx="687" cy="875" r="5px" />
	<circle cx="625" cy="812" r="5px" />
	<circle cx="687" cy="812" r="5px" />
	<circle cx="750" cy="937" r="5px" />
	<circle cx="812" cy="937" r="5px" />
	<circle cx="875" cy="937" r="5px" />
	<circle cx="937" cy="937" r="5px" />
	<circle cx="750" cy="875" r="5px" />
	<circle cx="812" cy="875" r="5px" />
	<circle cx="750" cy="812" r="5px" />
	<circle cx="812" cy="812" r="5px" />
	<circle cx="875" cy="875" r="5px" />
	<circle cx="937" cy="875" r="5px" />
	<circle cx="875" cy="812" r="5px" />
	<circle cx="937" cy="812" r="5px" />
	<circle cx="500" cy="750" r="5px" />
	<circle cx="562" cy="750" r="5px" />
	<circle cx="500" cy="687" r="5px" />
	<circle cx="562" cy="687" r="5px" />
	<circle cx="625" cy="750" r="5px" />
	<circle cx="687" cy="750" r="5px" />
	<circle cx="625" cy="687" r="5px" />
	<circle cx="687" cy="687" r="5px" />
	<circle cx="500" cy="625" r="5px" />
	<circle cx="562" cy="625" r="5px" />
	<circle cx="500" cy="562" r="5px" />
	<circle cx="562" cy="562" r="5px" />
	<circle cx="625" cy="625" r="5px" />
	<circle cx="687" cy="625" r="5px" />
	<circle cx="625" cy="562" r="5px" />
	<circle cx="687" cy="562" r="5px" />
	<circle cx="750" cy="750" r="5px" />
	<circle cx="812" cy="750" r="5px" />
	<circle cx="750" cy="687" r="5px" />
	<circle cx="812" cy="687" r="5px" />
	<circle cx="875" cy="750" r="5px" />
	<circle cx="937" cy="750" r="5px" />
	<circle cx="875" cy="687" r="5px" />
	<circle cx="937" cy="687" r="5px" />
	<circle cx="750" cy="625" r="5px" />
	<circle cx="812" cy="625" r="5px" />
	<circle cx="750" cy="562" r="5px" />
	<circle cx="812" cy="562" r="5px" />
	<circle cx="875" cy="625" r="5px" />
	<circle cx="937" cy="625" r="5px" />
	<circle cx="875" cy="562" r="5px" />
	<circle cx="937" cy="562" r="5px" />
	<circle cx="0" cy="500" r="5px" />
	<circle cx="62" cy="500" r="5px" />
	<circle cx="0" cy="437" r="5px" />
	<circle cx="62" cy="437" r="5px" />
	<circle cx="125" cy="500" r="5px" />
	<circle cx="187" cy="500" r="5px" />
	<circle cx="125" cy="437" r="5px" />
	<circle cx="187" cy="437" r="5px" />
	<circle cx="0" cy="375" r="5px" />
	<circle cx="62" cy="375" r="5px" />
	<circle cx="0" cy="312" r="5px" />
	<circle cx="62" cy="312" r="5px" />
	<circle cx="125" cy="375" r="5px" />
	<circle cx="187" cy="375" r="5px" />
	<circle cx="125" cy="312" r="5px" />
	<circle cx="187" cy="312" r="5px" />
	<circle cx="250" cy="500" r="5px" />
	<circle cx="312" cy="500" r="5px" />
	<circle cx="250" cy="437" r="5px" />
	<circle cx="312" cy="437" r="5px" />
	<circle cx="375" cy="500" r="5px" />
	<circle cx="437" cy="500" r="5px" />
	<circle cx="375" cy="437" r="5px" />
	<circle cx="437" cy="437" r="5px" />
	<circle cx="250" cy="375" r="5px" />
	<circle cx="312" cy="375" r="5px" />
	<circle cx="250" cy="312" r="5px" />
	<circle cx="312" cy="312" r="5px" />
	<circle cx="375" cy="375" r="5px" />
	<circle cx="437" cy="375" r="5px" />
	<circle cx="375" cy="312" r="5px" />
	<circle cx="437" cy="312" r="5px" />
	<circle cx="0" cy="250" r="5px" />
	<circle cx="62" cy="250" r="5px" />
	<circle cx="0" cy="187" r="5px" />
	<circle cx="62" cy="187" r="5px" />
	<circle cx="125" cy="250" r="5px" />
	<circle cx="187" cy="250" r="5px" />
	<circle cx="125" cy="187" r="5px" />
	<circle cx="187" cy="187" r="5px" />
	<circle cx="0" cy="125" r="5px" />
	<circle cx="62" cy="125" r="5px" />
	<circle cx="0" cy="62" r="5px" />
	<circle cx="0" cy="0" r="5px" />
	<circle cx="62" cy="62" r="5px" />
	<circle cx="62" cy="0" r="5px" />
	<circle cx="125" cy="125" r="5px" />
	<circle cx="187" cy="125" r="5px" />
	<circle cx="125" cy="62" r="5px" />
	<circle cx="125" cy="0" r="5px" />
	<circle cx="187" cy="62" r="5px" />
	<circle cx="187" cy="0" r="5px" />
	<circle cx="250" cy="250" r="5px" />
	<circle cx="312" cy="250" r="5px" />
	<circle cx="250" cy="187" r="5px" />
	<circle cx="312" cy="187" r="5px" />
	<circle cx="375" cy="250" r="5px" />
	<circle cx="437" cy="250" r="5px" />
	<circle cx="375" cy="187" r="5px" />
	<circle cx="437" cy="187" r="5px" />
	<circle cx="250" cy="125" r="5px" />
	<circle cx="312" cy="125" r="5px" />
	<circle cx="250" cy="62" r="5px" />
	<circle cx="250" cy="0" r="5px" />
	<circle cx="312" cy="62" r="5px" />
	<circle cx="312" cy="0" r="5px" />
	<circle cx="375" cy="125" r="5px" />
	<circle cx="437" cy="125" r="5px" />
	<circle cx="375" cy="62" r="5px" />
	<circle cx="375" cy="0" r="5px" />
	<circle cx="437" cy="62" r="5px" />
	<circle cx="437" cy="0" r="5px" />
	<circle cx="500" cy="500" r="5px" />
	<circle cx="562" cy="500" r="5px" />
	<circle cx="500" cy="437" r="5px" />
	<circle cx="562" cy="437" r="5px" />
	<circle cx="625" cy="500" r="5px" />
	<circle cx="687" cy="500" r="5px" />
	<circle cx="625" cy="437" r="5px" />
	<circle cx="687" cy="437" r="5px" />
	<circle cx="500" cy="375" r="5px" />
	<circle cx="562" cy="375" r="5px" />
	<circle cx="500" cy="312" r="5px" />
	<circle cx="562" cy="312" r="5px" />
	<circle cx="625" cy="375" r="5px" />
	<circle cx="687" cy="375" r="5px" />
	<circle cx="625" cy="312" r="5px" />
	<circle cx="687" cy="312" r="5px" />
	<circle cx="750" cy="500" r="5px" />
	<circle cx="812" cy="500" r="5px" />
	<circle cx="750" cy="437" r="5px" />
	<circle cx="812" cy="437" r="5px" />
	<circle cx="875" cy="500" r="5px" />
	<circle cx="937" cy="500" r="5px" />
	<circle cx="875" cy="437" r="5px" />
	<circle cx="937" cy="437" r="5px" />
	<circle cx="750" cy="375" r="5px" />
	<circle cx="812" cy="375" r="5px" />
	<circle cx="750" cy="312" r="5px" />
	<circle cx="812" cy="312" r="5px" />
	<circle cx="875" cy="375" r="5px" />
	<circle cx="937" cy="375" r="5px" />
	<circle cx="875" cy="312" r="5px" />
	<circle cx="937" cy="312" r="5px" />
	<circle cx="500" cy="250" r="5px" />
	<circle cx="562" cy="250" r="5px" />
	<circle cx="500" cy="187" r="5px" />
	<circle cx="562" cy="187" r="5px" />
	<circle cx="625" cy="250" r="5px" />
	<circle cx="687" cy="250" r="5px" />
	<circle cx="625" cy="187" r="5px" />
	<circle cx="687" cy="187" r="5px" />
	<circle cx="500" cy="125" r="5px" />
	<circle cx="562" cy="125" r="5px" />
	<circle cx="500" cy="62" r="5px" />
	<circle cx="500" cy="0" r="5px" />
	<circle cx="562" cy="62" r="5px" />
	<circle cx="562" cy="0" r="5px" />
	<circle cx="625" cy="125" r="5px" />
	<circle cx="687" cy="125" r="5px" />
	<circle cx="625" cy="62" r="5px" />
	<circle cx="625" cy="0" r="5px" />
	<circle cx="687" cy="62" r="5px" />
	<circle cx="687" cy="0" r="5px" />
	<circle cx="750" cy="250" r="5px" />
	<circle cx="812" cy="250" r="5px" />
	<circle cx="750" cy="187" r="5px" />
	<circle cx="812" cy="187" r="5px" />
	<circle cx="875" cy="250" r="5px" />
	<circle cx="937" cy="250" r="5px" />
	<circle cx="875" cy="187" r="5px" />
	<circle cx="937" cy="187" r="5px" />
	<circle cx="750" cy="125" r="5px" />
	<circle cx="812" cy="125" r="5px" />
	<circle cx="750" cy="62" r="5px" />
	<circle cx="750" cy="0" r="5px" />
	<circle cx="812" cy="62" r="5px" />
	<circle cx="812" cy="0" r="5px" />
	<circle cx="875" cy="125" r="5px" />
	<circle cx="937" cy="125" r="5px" />
	<circle cx="875" cy="62" r="5px" />
	<circle cx="875" cy="0" r="5px" />
	<circle cx="937" cy="62" r="5px" />
	<circle cx="937" cy="0" r="5px" />
	<line x1="0" y1="937" x2="62" y2="937" style="fill:none;stroke:black;stroke-width:1" />
	<line x1="62" y1="937" x2="125" y2="937" style="fill:none;stroke:black;stroke-width:1" />
	<line x1="125" y1="937" x2="187" y2="937" style="fill:none;stroke:black;stroke-width:1" />
	<line x1="187" y1="937" x2="0" y2="875" style="fill:none;stroke:black;stroke-width:1" />
	<line x1="0" y1="875" x2="62" y2="875" style="fill:none;stroke:black;stroke-width:1" />
	<line x1="62" y1="875" x2="0" y2="812" style="fill:none;stroke:black;stroke-width:1" />
	<line x1="0" y1="812" x2="62" y2="812" style="fill:none;stroke:black;stroke-width:1" />
	<line x1="62" y1="812" x2="125" y2="875" style="fill:none;stroke:black;stroke-width:1" />
	<line x1="125" y1="875" x2="187" y2="875" style="fill:none;stroke:black;stroke-width:1" />
	<line x1="187" y1="875" x2="125" y2="812" style="fill:none;stroke:black;stroke-width:1" />
	<line x1="125" y1="812" x2="187" y2="812" style="fill:none;stroke:black;stroke-width:1" />
	<line x1="187" y1="812" x2="250" y2="937" style="fill:none;stroke:black;stroke-width:1" />
	<line x1="250" y1="937" x2="312" y2="937" style="fill:none;stroke:black;stroke-width:1" />
	<line x1="312" y1="937" x2="375" y2="937" style="fill:none;stroke:black;stroke-width:1" />
	<line x1="375" y1="937" x2="437" y2="937" style="fill:none;stroke:black;stroke-width:1" />
	<line x1="437" y1="937" x2="250" y2="875" style="fill:none;stroke:black;stroke-width:1" />
	<line x1="250" y1="875" x2="312" y2="875" style="fill:none;stroke:black;stroke-width:1" />
	<line x1="312" y1="875" x2="250" y2="812" style="fill:none;stroke:black;stroke-width:1" />
	<line x1="250" y1="812" x2="312" y2="812" style="fill:none;stroke:black;stroke-width:1" />
	<line x1="312" y1="812" x2="375" y2="875" style="fill:none;stroke:black;stroke-width:1" />
	<line x1="375" y1="875" x2="437" y2="875" style="fill:none;stroke:black;stroke-width:1" />
	<line x1="437" y1="875" x2="375" y2="812" style="fill:none;stroke:black;stroke-width:1" />
	<line x1="375" y1="812" x2="437" y2="812" style="fill:none;stroke:black;stroke-width:1" />
	<line x1="437" y1="812" x2="0" y2="750" style="fill:none;stroke:black;stroke-width:1" />
	<line x1="0" y1="750" x2="62" y2="750" style="fill:none;stroke:black;stroke-width:1" />
	<line x1="62" y1="750" x2="0" y2="687" style="fill:none;stroke:black;stroke-width:1" />
	<line x1="0" y1="687" x2="62" y2="687" style="fill:none;stroke:black;stroke-width:1" />
	<line x1="62" y1="687" x2="125" y2="750" style="fill:none;stroke:black;stroke-width:1" />
	<line x1="125" y1="750" x2="187" y2="750" style="fill:none;stroke:black;stroke-width:1" />
	<line x1="187" y1="750" x2="125" y2="687" style="fill:none;stroke:black;stroke-width:1" />
	<line x1="125" y1="687" x2="187" y2="687" style="fill:none;stroke:black;stroke-width:1" />
	<line x1="187" y1="687" x2="0" y2="625" style="fill:none;stroke:black;stroke-width:1" />
	<line x1="0" y1="625" x2="62" y2="625" style="fill:none;stroke:black;stroke-width:1" />
	<line x1="62" y1="625" x2="0" y2="562" style="fill:none;stroke:black;stroke-width:1" />
	<line x1="0" y1="562" x2="62" y2="562" style="fill:none;stroke:black;stroke-width:1" />
	<line x1="62" y1="562" x2="125" y2="625" style="fill:none;stroke:black;stroke-width:1" />
	<line x1="125" y1="625" x2="187" y2="625" style="fill:none;stroke:black;stroke-width:1" />
	<line x1="187" y1="625" x2="125" y2="562" style="fill:none;stroke:black;stroke-width:1" />
	<line x1="125" y1="562" x2="187" y2="562" style="fill:none;stroke:black;stroke-width:1" />
	<line x1="187" y1="562" x2="250" y2="750" style="fill:none;stroke:black;stroke-width:1" />
	<line x1="250" y1="750" x2="312" y2="750" style="fill:none;stroke:black;stroke-width:1" />
	<line x1="312" y1="750" x2="250" y2="687" style="fill:none;stroke:black;stroke-width:1" />
	<line x1="250" y1="687" x2="312" y2="687" style="fill:none;stroke:black;stroke-width:1" />
	<line x1="312" y1="687" x2="375" y2="750" style="fill:none;stroke:black;stroke-width:1" />
	<line x1="375" y1="750" x2="437" y2="750" style="fill:none;stroke:black;stroke-width:1" />
	<line x1="437" y1="750" x2="375" y2="687" style="fill:none;stroke:black;stroke-width:1" />
	<line x1="375" y1="687" x2="437" y2="687" style="fill:none;stroke:black;stroke-width:1" />
	<line x1="437" y1="687" x2="250" y2="625" style="fill:none;stroke:black;stroke-width:1" />
	<line x1="250" y1="625" x2="312" y2="625" style="fill:none;stroke:black;stroke-width:1" />
	<line x1="312" y1="625" x2="250" y2="562" style="fill:none;stroke:black;stroke-width:1" />
	<line x1="250" y1="562" x2="312" y2="562" style="fill:none;stroke:black;stroke-width:1" />
	<line x1="312" y1="562" x2="375" y2="625" style="fill:none;stroke:black;stroke-width:1" />
	<line x1="375" y1="625" x2="437" y2="625" style="fill:none;stroke:black;stroke-width:1" />
	<line x1="437" y1="625" x2="375" y2="562" style="fill:none;stroke:black;stroke-width:1" />
	<line x1="375" y1="562" x2="437" y2="562" style="fill:none;stroke:black;stroke-width:1" />
	<line x1="437" y1="562" x2="500" y2="937" style="fill:none;stroke:black;stroke-width:1" />
	<line x1="500" y1="937" x2="562" y2="937" style="fill:none;stroke:black;stroke-width:1" />
	<line x1="562" y1="937" x2="625" y2="937" style="fill:none;stroke:black;stroke-width:1" />
	<line x1="625" y1="937" x2="687" y2="937" style="fill:none;stroke:black;stroke-width:1" />
	<line x1="687" y1="937" x2="500" y2="875" style="fill:none;stroke:black;stroke-width:1" />
	<line x1="500" y1="875" x2="562" y2="875" style="fill:none;stroke:black;stroke-width:1" />
	<line x1="562" y1="875" x2="500" y2="812" style="fill:none;stroke:black;stroke-width:1" />
	<line x1="500" y1="812" x2="562" y2="812" style="fill:none;stroke:black;stroke-width:1" />
	<line x1="562" y1="812" x2="625" y2="875" style="fill:none;stroke:black;stroke-width:1" />
	<line x1="625" y1="875" x2="687" y2="875" style="fill:none;stroke:black;stroke-width:1" />
	<line x1="687" y1="875" x2="625" y2="812" style="fill:none;stroke:black;stroke-width:1" />
	<line x1="625" y1="812" x2="687" y2="812" style="fill:none;stroke:black;stroke-width:1" />
	<line x1="687" y1="812" x2="750" y2="937" style="fill:none;stroke:black;stroke-width:1" />
	<line x1="750" y1="937" x2="812" y2="937" style="fill:none;stroke:black;stroke-width:1" />
	<line x1="812" y1="937" x2="875" y2="937" style="fill:none;stroke:black;stroke-width:1" />
	<line x1="875" y1="937" x2="937" y2="937" style="fill:none;stroke:black;stroke-width:1" />
	<line x1="937" y1="937" x2="750" y2="875" style="fill:none;stroke:black;stroke-width:1" />
	<line x1="750" y1="875" x2="812" y2="875" style="fill:none;stroke:black;stroke-width:1" />
	<line x1="812" y1="875" x2="750" y2="812" style="fill:none;stroke:black;stroke-width:1" />
	<line x1="750" y1="812" x2="812" y2="812" style="fill:none;stroke:black;stroke-width:1" />
	<line x1="812" y1="812" x2="875" y2="875" style="fill:none;stroke:black;stroke-width:1" />
	<line x1="875" y1="875" x2="937" y2="875" style="fill:none;stroke:black;stroke-width:1" />
	<line x1="937" y1="875" x2="875" y2="812" style="fill:none;stroke:black;stroke-width:1" />
	<line x1="875" y1="812" x2="937" y2="812" style="fill:none;stroke:black;stroke-width:1" />
	<line x1="937" y1="812" x2="500" y2="750" style="fill:none;stroke:black;stroke-width:1" />
	<line x1="500" y1="750" x2="562" y2="750" style="fill:none;stroke:black;stroke-width:1" />
	<line x1="562" y1="750" x2="500" y2="687" style="fill:none;stroke:black;stroke-width:1" />
	<line x1="500" y1="687" x2="562" y2="687" style="fill:none;stroke:black;stroke-width:1" />
	<line x1="562" y1="687" x2="625" y2="750" style="fill:none;stroke:black;stroke-width:1" />
	<line x1="625" y1="750" x2="687" y2="750" style="fill:none;stroke:black;stroke-width:1" />
	<line x1="687" y1="750" x2="625" y2="687" style="fill:none;stroke:black;stroke-width:1" />
	<line x1="625" y1="687" x2="687" y2="687" style="fill:none;stroke:black;stroke-width:1" />
	<line x1="687" y1="687" x2="500" y2="625" style="fill:none;stroke:black;stroke-width:1" />
	<line x1="500" y1="625" x2="562" y2="625" style="fill:none;stroke:black;stroke-width:1" />
	<line x1="562" y1="625" x2="500" y2="562" style="fill:none;stroke:black;stroke-width:1" />
	<line x1="500" y1="562" x2="562" y2="562" style="fill:none;stroke:black;stroke-width:1" />
	<line x1="562" y1="562" x2="625" y2="625" style="fill:none;stroke:black;stroke-width:1" />
	<line x1="625" y1="625" x2="687" y2="625" style="fill:none;stroke:black;stroke-width:1" />
	<line x1="687" y1="625" x2="625" y2="562" style="fill:none;stroke:black;stroke-width:1" />
	<line x1="625" y1="562" x2="687" y2="562" style="fill:none;stroke:black;stroke-width:1" />
	<line x1="687" y1="562" x2="750" y2="750" style="fill:none;stroke:black;stroke-width:1" />
	<line x1="750" y1="750" x2="812" y2="750" style="fill:none;stroke:black;stroke-width:1" />
	<line x1="812" y1="750" x2="750" y2="687" style="fill:none;stroke:black;stroke-width:1" />
	<line x1="750" y1="687" x2="812" y2="687" style="fill:none;stroke:black;stroke-width:1" />
	<line x1="812" y1="687" x2="875" y2="750" style="fill:none;stroke:black;stroke-width:1" />
	<line x1="875" y1="750" x2="937" y2="750" style="fill:none;stroke:black;stroke-width:1" />
	<line x1="937" y1="750" x2="875" y2="687" style="fill:none;stroke:black;stroke-width:1" />
	<line x1="875" y1="687" x2="937" y2="687" style="fill:none;stroke:black;stroke-width:1" />
	<line x1="937" y1="687" x2="750" y2="625" style="fill:none;stroke:black;stroke-width:1" />
	<line x1="750" y1="625" x2="812" y2="625" style="fill:none;stroke:black;stroke-width:1" />
	<line x1="812" y1="625" x2="750" y2="562" style="fill:none;stroke:black;stroke-width:1" />
	<line x1="750" y1="562" x2="812" y2="562" style="fill:none;stroke:black;stroke-width:1" />
	<line x1="812" y1="562" x2="875" y2="625" style="fill:none;stroke:black;stroke-width:1" />
	<line x1="875" y1="625" x2="937" y2="625" style="fill:none;stroke:black;stroke-width:1" />
	<line x1="937" y1="625" x2="875" y2="562" style="fill:none;stroke:black;stroke-width:1" />
	<line x1="875" y1="562" x2="937" y2="562" style="fill:none;stroke:black;stroke-width:1" />
	<line x1="937" y1="562" x2="0" y2="500" style="fill:none;stroke:black;stroke-width:1" />
	<line x1="0" y1="500" x2="62" y2="500" style="fill:none;stroke:black;stroke-width:1" />
	<line x1="62" y1="500" x2="0" y2="437" style="fill:none;stroke:black;stroke-width:1" />
	<line x1="0" y1="437" x2="62" y2="437" style="fill:none;stroke:black;stroke-width:1" />
	<line x1="62" y1="437" x2="125" y2="500" style="fill:none;stroke:black;stroke-width:1" />
	<line x1="125" y1="500" x2="187" y2="500" style="fill:none;stroke:black;stroke-width:1" />
	<line x1="187" y1="500" x2="125" y2="437" style="fill:none;stroke:black;stroke-width:1" />
	<line x1="125" y1="437" x2="187" y2="437" style="fill:none;stroke:black;stroke-width:1" />
	<line x1="187" y1="437" x2="0" y2="375" style="fill:none;stroke:black;stroke-width:1" />
	<line x1="0" y1="375" x2="62" y2="375" style="fill:none;stroke:black;stroke-width:1" />
	<line x1="62" y1="375" x2="0" y2="312" style="fill:none;stroke:black;stroke-width:1" />
	<line x1="0" y1="312" x2="62" y2="312" style="fill:none;stroke:black;stroke-width:1" />
	<line x1="62" y1="312" x2="125" y2="375" style="fill:none;stroke:black;stroke-width:1" />
	<line x1="125" y1="375" x2="187" y2="375" style="fill:none;stroke:black;stroke-width:1" />
	<line x1="187" y1="375" x2="125" y2="312" style="fill:none;stroke:black;stroke-width:1" />
	<line x1="125" y1="312" x2="187" y2="312" style="fill:none;stroke:black;stroke-width:1" />
	<line x1="187" y1="312" x2="250" y2="500" style="fill:none;stroke:black;stroke-width:1" />
	<line x1="250" y1="500" x2="312" y2="500" style="fill:none;stroke:black;stroke-width:1" />
	<line x1="312" y1="500" x2="250" y2="437" style="fill:none;stroke:black;stroke-width:1" />
	<line x1="250" y1="437" x2="312" y2="437" style="fill:none;stroke:black;stroke-width:1" />
	<line x1="312" y1="437" x2="375" y2="500" style="fill:none;stroke:black;stroke-width:1" />
	<line x1="375" y1="500" x2="437" y2="500" style="fill:none;stroke:black;stroke-width:1" />
	<line x1="437" y1="500" x2="375" y2="437" style="fill:none;stroke:black;stroke-width:1" />
	<line x1="375" y1="437" x2="437" y2="437" style="fill:none;stroke:black;stroke-width:1" />
	<line x1="437" y1="437" x2="250" y2="375" style="fill:none;stroke:black;stroke-width:1" />
	<line x1="250" y1="375" x2="312" y2="375" style="fill:none;stroke:black;stroke-width:1" />
	<line x1="312" y1="375" x2="250" y2="312" style="fill:none;stroke:black;stroke-width:1" />
	<line x1="250" y1="312" x2="312" y2="312" style="fill:none;stroke:black;stroke-width:1" />
	<line x1="312" y1="312" x2="375" y2="375" style="fill:none;stroke:black;stroke-width:1" />
	<line x1="375" y1="375" x2="437" y2="375" style="fill:none;stroke:black;stroke-width:1" />
	<line x1="437" y1="375" x2="375" y2="312" style="fill:none;stroke:black;stroke-width:1" />
	<line x1="375" y1="312" x2="437" y2="312" style="fill:none;stroke:black;stroke-width:1" />
	<line x1="437" y1="312" x2="0" y2="250" style="fill:none;stroke:black;stroke-width:1" />
	<line x1="0" y1="250" x2="62" y2="250" style="fill:none;stroke:black;stroke-width:1" />
	<line x1="62" y1="250" x2="0" y2="187" style="fill:none;stroke:black;stroke-width:1" />
	<line x1="0" y1="187" x2="62" y2="187" style="fill:none;stroke:black;stroke-width:1" />
	<line x1="62" y1="187" x2="125" y2="250" style="fill:none;stroke:black;stroke-width:1" />
	<line x1="125" y1="250" x2="187" y2="250" style="fill:none;stroke:black;stroke-width:1" />
	<line x1="187" y1="250" x2="125" y2="187" style="fill:none;stroke:black;stroke-width:1" />
	<line x1="125" y1="187" x2="187" y2="187" style="fill:none;stroke:black;stroke-width:1" />
	<line x1="187" y1="187" x2="0" y2="125" style="fill:none;stroke:black;stroke-width:1" />
	<line x1="0" y1="125" x2="62" y2="125" style="fill:none;stroke:black;stroke-width:1" />
	<line x1="62" y1="125" x2="0" y2="62" style="fill:none;stroke:black;stroke-width:1" />
	<line x1="0" y1="62" x2="0" y2="0" style="fill:none;stroke:black;stroke-width:1" />
	<line x1="0" y1="0" x2="62" y2="62" style="fill:none;stroke:black;stroke-width:1" />
	<line x1="62" y1="62" x2="62" y2="0" style="fill:none;stroke:black;stroke-width:1" />
	<line x1="62" y1="0" x2="125" y2="125" style="fill:none;stroke:black;stroke-width:1" />
	<line x1="125" y1="125" x2="187" y2="125" style="fill:none;stroke:black;stroke-width:1" />
	<line x1="187" y1="125" x2="125" y2="62" style="fill:none;stroke:black;stroke-width:1" />
	<line x1="125" y1="62" x2="125" y2="0" style="fill:none;stroke:black;stroke-width:1" />
	<line x1="125" y1="0" x2="187" y2="62" style="fill:none;stroke:black;stroke-width:1" />
	<line x1="187" y1="62" x2="187" y2="0" style="fill:none;stroke:black;stroke-width:1" />
	<line x1="187" y1="0" x2="250" y2="250" style="fill:none;stroke:black;stroke-width:1" />
	<line x1="250" y1="250" x2="312" y2="250" style="fill:none;stroke:black;stroke-width:1" />
	<line x1="312" y1="250" x2="250" y2="187" style="fill:none;stroke:black;stroke-width:1" />
	<line x1="250" y1="187" x2="312" y2="187" style="fill:none;stroke:black;stroke-width:1" />
	<line x1="312" y1="187" x2="375" y2="250" style="fill:none;stroke:black;stroke-width:1" />
	<line x1="375" y1="250" x2="437" y2="250" style="fill:none;stroke:black;stroke-width:1" />
	<line x1="437" y1="250" x2="375" y2="187" style="fill:none;stroke:black;stroke-width:1" />
	<line x1="375" y1="187" x2="437" y2="187" style="fill:none;stroke:black;stroke-width:1" />
	<line x1="437" y1="187" x2="250" y2="125" style="fill:none;stroke:black;stroke-width:1" />
	<line x1="250" y1="125" x2="312" y2="125" style="fill:none;stroke:black;stroke-width:1" />
	<line x1="312" y1="125" x2="250" y2="62" style="fill:none;stroke:black;stroke-width:1" />
	<line x1="250" y1="62" x2="250" y2="0" style="fill:none;stroke:black;stroke-width:1" />
	<line x1="250" y1="0" x2="312" y2="62" style="fill:none;stroke:black;stroke-width:1" />
	<line x1="312" y1="62" x2="312" y2="0" style="fill:none;stroke:black;stroke-width:1" />
	<line x1="312" y1="0" x2="375" y2="125" style="fill:none;stroke:black;stroke-width:1" />
	<line x1="375" y1="125" x2="437" y2="125" style="fill:none;stroke:black;stroke-width:1" />
	<line x1="437" y1="125" x2="375" y2="62" style="fill:none;stroke:black;stroke-width:1" />
	<line x1="375" y1="62" x2="375" y2="0" style="fill:none;stroke:black;stroke-width:1" />
	<line x1="375" y1="0" x2="437" y2="62" style="fill:none;stroke:black;stroke-width:1" />
	<line x1="437" y1="62" x2="437" y2="0" style="fill:none;stroke:black;stroke-width:1" />
	<line x1="437" y1="0" x2="500" y2="500" style="fill:none;stroke:black;stroke-width:1" />
	<line x1="500" y1="500" x2="562" y2="500" style="fill:none;stroke:black;stroke-width:1" />
	<line x1="562" y1="500" x2="500" y2="437" style="fill:none;stroke:black;stroke-width:1" />
	<line x1="500" y1="437" x2="562" y2="437" style="fill:none;stroke:black;stroke-width:1" />
	<line x1="562" y1="437" x2="625" y2="500" style="fill:none;stroke:black;stroke-width:1" />
	<line x1="625" y1="500" x2="687" y2="500" style="fill:none;stroke:black;stroke-width:1" />
	<line x1="687" y1="500" x2="625" y2="437" style="fill:none;stroke:black;stroke-width:1" />
	<line x1="625" y1="437" x2="687" y2="437" style="fill:none;stroke:black;stroke-width:1" />
	<line x1="687" y1="437" x2="500" y2="375" style="fill:none;stroke:black;stroke-width:1" />
	<line x1="500" y1="375" x2="562" y2="375" style="fill:none;stroke:black;stroke-width:1" />
	<line x1="562" y1="375" x2="500" y2="312" style="fill:none;stroke:black;stroke-width:1" />
	<line x1="500" y1="312" x2="562" y2="312" style="fill:none;stroke:black;stroke-width:1" />
	<line x1="562" y1="312" x2="625" y2="375" style="fill:none;stroke:black;stroke-width:1" />
	<line x1="625" y1="375" x2="687" y2="375" style="fill:none;stroke:black;stroke-width:1" />
	<line x1="687" y1="375" x2="625" y2="312" style="fill:none;stroke:black;stroke-width:1" />
	<line x1="625" y1="312" x2="687" y2="312" style="fill:none;stroke:black;stroke-width:1" />
	<line x1="687" y1="312" x2="750" y2="500" style="fill:none;stroke:black;stroke-width:1" />
	<line x1="750" y1="500" x2="812" y2="500" style="fill:none;stroke:black;stroke-width:1" />
	<line x1="812" y1="500" x2="750" y2="437" style="fill:none;stroke:black;stroke-width:1" />
	<line x1="750" y1="437" x2="812" y2="437" style="fill:none;stroke:black;stroke-width:1" />
	<line x1="812" y1="437" x2="875" y2="500" style="fill:none;stroke:black;stroke-width:1" />
	<line x1="875" y1="500" x2="937" y2="500" style="fill:none;stroke:black;stroke-width:1" />
	<line x1="937" y1="500" x2="875" y2="437" style="fill:none;stroke:black;stroke-width:1" />
	<line x1="875" y1="437" x2="937" y2="437" style="fill:none;stroke:black;stroke-width:1" />
	<line x1="937" y1="437" x2="750" y2="375" style="fill:none;stroke:black;stroke-width:1" />
	<line x1="750" y1="375" x2="812" y2="375" style="fill:none;stroke:black;stroke-width:1" />
	<line x1="812" y1="375" x2="750" y2="312" style="fill:none;stroke:black;stroke-width:1" />
	<line x1="750" y1="312" x2="812" y2="312" style="fill:none;stroke:black;stroke-width:1" />
	<line x1="812" y1="312" x2="875" y2="375" style="fill:none;stroke:black;stroke-width:1" />
	<line x1="875" y1="375" x2="937" y2="375" style="fill:none;stroke:black;stroke-width:1" />
	<line x1="937" y1="375" x2="875" y2="312" style="fill:none;stroke:black;stroke-width:1" />
	<line x1="875" y1="312" x2="937" y2="312" style="fill:none;stroke:black;stroke-width:1" />
	<line x1="937" y1="312" x2="500" y2="250" style="fill:none;stroke:black;stroke-width:1" />
	<line x1="500" y1="250" x2="562" y2="250" style="fill:none;stroke:black;stroke-width:1" />
	<line x1="562" y1="250" x2="500" y2="187" style="fill:none;stroke:black;stroke-width:1" />
	<line x1="500" y1="187" x2="562" y2="187" style="fill:none;stroke:black;stroke-width:1" />
	<line x1="562" y1="187" x2="625" y2="250" style="fill:none;stroke:black;stroke-width:1" />
	<line x1="625" y1="250" x2="687" y2="250" style="fill:none;stroke:black;stroke-width:1" />
	<line x1="687" y1="250" x2="625" y2="187" style="fill:none;stroke:black;stroke-width:1" />
	<line x1="625" y1="187" x2="687" y2="187" style="fill:none;stroke:black;stroke-width:1" />
	<line x1="687" y1="187" x2="500" y2="125" style="fill:none;stroke:black;stroke-width:1" />
	<line x1="500" y1="125" x2="562" y2="125" style="fill:none;stroke:black;stroke-width:1" />
	<line x1="562" y1="125" x2="500" y2="62" style="fill:none;stroke:black;stroke-width:1" />
	<line x1="500" y1="62" x2="500" y2="0" style="fill:none;stroke:black;stroke-width:1" />
	<line x1="500" y1="0" x2="562" y2="62" style="fill:none;stroke:black;stroke-width:1" />
	<line x1="562" y1="62" x2="562" y2="0" style="fill:none;stroke:black;stroke-width:1" />
	<line x1="562" y1="0" x2="625" y2="125" style="fill:none;stroke:black;stroke-width:1" />
	<line x1="625" y1="125" x2="687" y2="125" style="fill:none;stroke:black;stroke-width:1" />
	<line x1="687" y1="125" x2="625" y2="62" style="fill:none;stroke:black;stroke-width:1" />
	<line x1="625" y1="62" x2="625" y2="0" style="fill:none;stroke:black;stroke-width:1" />
	<line x1="625" y1="0" x2="687" y2="62" style="fill:none;stroke:black;stroke-width:1" />
	<line x1="687" y1="62" x2="687" y2="0" style="fill:none;stroke:black;stroke-width:1" />
	<line x1="687" y1="0" x2="750" y2="250" style="fill:none;stroke:black;stroke-width:1" />
	<line x1="750" y1="250" x2="812" y2="250" style="fill:none;stroke:black;stroke-width:1" />
	<line x1="812" y1="250" x2="750" y2="187" style="fill:none;stroke:black;stroke-width:1" />
	<line x1="750" y1="187" x2="812" y2="187" style="fill:none;stroke:black;stroke-width:1" />
	<line x1="812" y1="187" x2="875" y2="250" style="fill:none;stroke:black;stroke-width:1" />
	<line x1="875" y1="250" x2="937" y2="250" style="fill:none;stroke:black;stroke-width:1" />
	<line x1="937" y1="250" x2="875" y2="187" style="fill:none;stroke:black;stroke-width:1" />
	<line x1="875" y1="187" x2="937" y2="187" style="fill:none;stroke:black;stroke-width:1" />
	<line x1="937" y1="187" x2="750" y2="125" style="fill:none;stroke:black;stroke-width:1" />
	<line x1="750" y1="125" x2="812" y2="125" style="fill:none;stroke:black;stroke-width:1" />
	<line x1="812" y1="125" x2="750" y2="62" style="fill:none;stroke:black;stroke-width:1" />
	<line x1="750" y1="62" x2="750" y2="0" style="fill:none;stroke:black;stroke-width:1" />
	<line x1="750" y1="0" x2="812" y2="62" style="fill:none;stroke:black;stroke-width:1" />
	<line x1="812" y1="62" x2="812" y2="0" style="fill:none;stroke:black;stroke-width:1" />
	<line x1="812" y1="0" x2="875" y2="125" style="fill:none;stroke:black;stroke-width:1" />
	<line x1="875" y1="125" x2="937" y2="125" style="fill:none;stroke:black;stroke-width:1" />
	<line x1="937" y1="125" x2="875" y2="62" style="fill:none;stroke:black;stroke-width:1" />
	<line x1="875" y1="62" x2="875" y2="0" style="fill:none;stroke:black;stroke-width:1" />
	<line x1="875" y1="0" x2="937" y2="62" style="fill:none;stroke:black;stroke-width:1" />
	<line x1="937" y1="62" x2="937" y2="0" style="fill:none;stroke:black;stroke-width:1" />
</svg>