<?xml version="1.0" encoding="utf-8" ?>
<svg xmlns="http://www.w3.org/2000/svg" width="1000" height="1000" viewbox ="0 -1000 1000 1000">
	<defs>
		<marker id="arrow" markerWidth="5" markerHeight="5" refX="0" refY="3" orient="auto" markerUnits="strokeWidth" >
			<path d="M0,0 L0,6 L9,3 z" fill="#000" />
		</marker>
	</defs>

	<line x1="0" y1="0" x2="1000" y2="0" style="fill:none;stroke:black;stroke-width:3" marker-end="url(#arrow)" />
	<line x1="0" y1="0" x2="0" y2="1000" style="fill:none;stroke:black;stroke-width:3" marker-end="url(#arrow)" />
	<circle cx="19" cy="245" r="5px" />
	<line x1="19" y1="245" x2="21" y2="519" style="fill:none;stroke:black;stroke-width:1" />
	<circle cx="21" cy="519" r="5px" />
	<line x1="21" y1="519" x2="74" y2="817" style="fill:none;stroke:black;stroke-width:1" />
	<circle cx="74" cy="817" r="5px" />
	<line x1="74" y1="817" x2="75" y2="375" style="fill:none;stroke:black;stroke-width:1" />
	<circle cx="75" cy="375" r="5px" />
	<line x1="75" y1="375" x2="84" y2="190" style="fill:none;stroke:black;stroke-width:1" />
	<circle cx="84" cy="190" r="5px" />
	<line x1="84" y1="190" x2="89" y2="69" style="fill:none;stroke:black;stroke-width:1" />
	<circle cx="89" cy="69" r="5px" />
	<line x1="89" y1="69" x2="96" y2="978" style="fill:none;stroke:black;stroke-width:1" />
	<circle cx="96" cy="978" r="5px" />
	<line x1="96" y1="978" x2="116" y2="930" style="fill:none;stroke:black;stroke-width:1" />
	<circle cx="116" cy="930" r="5px" />
	<line x1="116" y1="930" x2="137" y2="874" style="fill:none;stroke:black;stroke-width:1" />
	<circle cx="137" cy="874" r="5px" />
	<line x1="137" y1="874" x2="146" y2="331" style="fill:none;stroke:black;stroke-width:1" />
	<circle cx="146" cy="331" r="5px" />
	<line x1="146" y1="331" x2="189" y2="906" style="fill:none;stroke:black;stroke-width:1" />
	<circle cx="189" cy="906" r="5px" />
	<line x1="189" y1="906" x2="232" y2="580" style="fill:none;stroke:black;stroke-width:1" />
	<circle cx="232" cy="580" r="5px" />
	<line x1="232" y1="580" x2="253" y2="90" style="fill:none;stroke:black;stroke-width:1" />
	<circle cx="253" cy="90" r="5px" />
	<line x1="253" y1="90" x2="277" y2="632" style="fill:none;stroke:black;stroke-width:1" />
	<circle cx="277" cy="632" r="5px" />
	<line x1="277" y1="632" x2="300" y2="289" style="fill:none;stroke:black;stroke-width:1" />
	<circle cx="300" cy="289" r="5px" />
	<line x1="300" y1="289" x2="347" y2="567" style="fill:none;stroke:black;stroke-width:1" />
	<circle cx="347" cy="567" r="5px" />
	<line x1="347" y1="567" x2="364" y2="599" style="fill:none;stroke:black;stroke-width:1" />
	<circle cx="364" cy="599" r="5px" />
	<line x1="364" y1="599" x2="383" y2="39" style="fill:none;stroke:black;stroke-width:1" />
	<circle cx="383" cy="39" r="5px" />
	<line x1="383" y1="39" x2="394" y2="663" style="fill:none;stroke:black;stroke-width:1" />
	<circle cx="394" cy="663" r="5px" />
	<line x1="394" y1="663" x2="400" y2="601" style="fill:none;stroke:black;stroke-width:1" />
	<circle cx="400" cy="601" r="5px" />
	<line x1="400" y1="601" x2="410" y2="84" style="fill:none;stroke:black;stroke-width:1" />
	<circle cx="410" cy="84" r="5px" />
	<line x1="410" y1="84" x2="432" y2="578" style="fill:none;stroke:black;stroke-width:1" />
	<circle cx="432" cy="578" r="5px" />
	<line x1="432" y1="578" x2="440" y2="163" style="fill:none;stroke:black;stroke-width:1" />
	<circle cx="440" cy="163" r="5px" />
	<line x1="440" y1="163" x2="445" y2="91" style="fill:none;stroke:black;stroke-width:1" />
	<circle cx="445" cy="91" r="5px" />
	<line x1="445" y1="91" x2="449" y2="633" style="fill:none;stroke:black;stroke-width:1" />
	<circle cx="449" cy="633" r="5px" />
	<line x1="449" y1="633" x2="470" y2="149" style="fill:none;stroke:black;stroke-width:1" />
	<circle cx="470" cy="149" r="5px" />
	<line x1="470" y1="149" x2="477" y2="296" style="fill:none;stroke:black;stroke-width:1" />
	<circle cx="477" cy="296" r="5px" />
	<line x1="477" y1="296" x2="489" y2="963" style="fill:none;stroke:black;stroke-width:1" />
	<circle cx="489" cy="963" r="5px" />
	<line x1="489" y1="963" x2="491" y2="578" style="fill:none;stroke:black;stroke-width:1" />
	<circle cx="491" cy="578" r="5px" />
	<line x1="491" y1="578" x2="515" y2="889" style="fill:none;stroke:black;stroke-width:1" />
	<circle cx="515" cy="889" r="5px" />
	<line x1="515" y1="889" x2="539" y2="931" style="fill:none;stroke:black;stroke-width:1" />
	<circle cx="539" cy="931" r="5px" />
	<line x1="539" y1="931" x2="543" y2="7" style="fill:none;stroke:black;stroke-width:1" />
	<circle cx="543" cy="7" r="5px" />
	<line x1="543" y1="7" x2="558" y2="907" style="fill:none;stroke:black;stroke-width:1" />
	<circle cx="558" cy="907" r="5px" />
	<line x1="558" y1="907" x2="594" y2="991" style="fill:none;stroke:black;stroke-width:1" />
	<circle cx="594" cy="991" r="5px" />
	<line x1="594" y1="991" x2="598" y2="248" style="fill:none;stroke:black;stroke-width:1" />
	<circle cx="598" cy="248" r="5px" />
	<line x1="598" y1="248" x2="616" y2="356" style="fill:none;stroke:black;stroke-width:1" />
	<circle cx="616" cy="356" r="5px" />
	<line x1="616" y1="356" x2="629" y2="756" style="fill:none;stroke:black;stroke-width:1" />
	<circle cx="629" cy="756" r="5px" />
	<line x1="629" y1="756" x2="656" y2="473" style="fill:none;stroke:black;stroke-width:1" />
	<circle cx="656" cy="473" r="5px" />
	<line x1="656" y1="473" x2="674" y2="136" style="fill:none;stroke:black;stroke-width:1" />
	<circle cx="674" cy="136" r="5px" />
	<line x1="674" y1="136" x2="688" y2="602" style="fill:none;stroke:black;stroke-width:1" />
	<circle cx="688" cy="602" r="5px" />
	<line x1="688" y1="602" x2="695" y2="389" style="fill:none;stroke:black;stroke-width:1" />
	<circle cx="695" cy="389" r="5px" />
	<line x1="695" y1="389" x2="712" y2="925" style="fill:none;stroke:black;stroke-width:1" />
	<circle cx="712" cy="925" r="5px" />
	<line x1="712" y1="925" x2="756" y2="976" style="fill:none;stroke:black;stroke-width:1" />
	<circle cx="756" cy="976" r="5px" />
	<line x1="756" y1="976" x2="811" y2="990" style="fill:none;stroke:black;stroke-width:1" />
	<circle cx="811" cy="990" r="5px" />
	<line x1="811" y1="990" x2="833" y2="598" style="fill:none;stroke:black;stroke-width:1" />
	<circle cx="833" cy="598" r="5px" />
	<line x1="833" y1="598" x2="841" y2="18" style="fill:none;stroke:black;stroke-width:1" />
	<circle cx="841" cy="18" r="5px" />
	<line x1="841" y1="18" x2="850" y2="575" style="fill:none;stroke:black;stroke-width:1" />
	<circle cx="850" cy="575" r="5px" />
	<line x1="850" y1="575" x2="892" y2="78" style="fill:none;stroke:black;stroke-width:1" />
	<circle cx="892" cy="78" r="5px" />
	<line x1="892" y1="78" x2="909" y2="269" style="fill:none;stroke:black;stroke-width:1" />
	<circle cx="909" cy="269" r="5px" />
	<line x1="909" y1="269" x2="957" y2="901" style="fill:none;stroke:black;stroke-width:1" />
	<circle cx="957" cy="901" r="5px" />
</svg>
